# Blender 5.0.0
# www.blender.org
mtllib Back_Pipe_90d.mtl
o rura90deg
v 0.000000 -0.150337 0.248315
v 0.140945 -0.091956 0.248315
v 0.199326 0.048989 0.248315
v 0.140945 0.189934 0.248315
v 0.000000 0.248315 0.248315
v -0.140945 0.189934 0.248315
v -0.199326 0.048989 0.248315
v -0.140945 -0.091956 0.248315
v 0.000000 -0.097219 0.248315
v 0.103385 -0.054396 0.248315
v 0.146208 0.048989 0.248315
v 0.103385 0.152374 0.248315
v 0.000000 0.195197 0.248315
v -0.103385 0.152374 0.248315
v -0.146208 0.048989 0.248315
v -0.103385 -0.054396 0.248315
v 0.000000 -0.250000 -0.250000
v 0.140945 -0.250000 -0.191619
v 0.199326 -0.250000 -0.050674
v 0.140945 -0.250000 0.090271
v 0.000000 -0.250000 0.148652
v -0.140945 -0.250000 0.090271
v -0.199326 -0.250000 -0.050674
v -0.140945 -0.250000 -0.191619
v 0.000000 -0.250000 -0.196882
v 0.103385 -0.250000 -0.154059
v 0.146208 -0.250000 -0.050674
v 0.103385 -0.250000 0.052711
v 0.000000 -0.250000 0.095534
v -0.103385 -0.250000 0.052711
v -0.146208 -0.250000 -0.050674
v -0.103385 -0.250000 -0.154059
v 0.000000 -0.157054 0.175560
v 0.000000 -0.162169 0.160484
v 0.000000 -0.177245 0.155369
v -0.140945 -0.101681 0.157062
v -0.140945 -0.120887 0.119202
v -0.140945 -0.158748 0.099996
v -0.199326 0.032002 0.112406
v -0.199326 -0.021224 0.019539
v -0.199326 -0.114091 -0.033688
v -0.140945 0.165686 0.067750
v -0.140945 0.078439 -0.080124
v -0.140945 -0.069435 -0.167371
v 0.000000 0.221059 0.049253
v 0.000000 0.119720 -0.121406
v 0.000000 -0.050938 -0.222744
v 0.140945 0.165686 0.067750
v 0.140945 0.078439 -0.080124
v 0.140945 -0.069435 -0.167371
v 0.199326 0.032002 0.112406
v 0.199326 -0.021224 0.019539
v 0.199326 -0.114091 -0.033688
v 0.140945 -0.158748 0.099996
v 0.140945 -0.120887 0.119202
v 0.140945 -0.101681 0.157062
v 0.103385 -0.146847 0.064371
v 0.103385 -0.094328 0.092643
v 0.103385 -0.066056 0.145162
v 0.146208 0.032002 0.112406
v 0.146208 -0.021224 0.019539
v 0.146208 -0.114091 -0.033688
v 0.103385 0.130061 0.079650
v 0.103385 0.051880 -0.053565
v 0.103385 -0.081336 -0.131746
v 0.000000 0.170678 0.066083
v 0.000000 0.082161 -0.083846
v 0.000000 -0.067768 -0.172363
v -0.103385 0.130061 0.079650
v -0.103385 0.051880 -0.053565
v -0.103385 -0.081336 -0.131746
v -0.146208 0.032002 0.112406
v -0.146208 -0.021224 0.019539
v -0.146208 -0.114091 -0.033688
v -0.103385 -0.066056 0.145162
v -0.103385 -0.094328 0.092643
v -0.103385 -0.146847 0.064371
v 0.000000 -0.106673 0.158730
v 0.000000 -0.124609 0.122924
v 0.000000 -0.160415 0.104988
vn -0.0000 -0.0000 1.0000
vn -0.0000 -1.0000 -0.0000
vn 0.9220 -0.0452 0.3846
vn 0.9220 0.0500 -0.3839
vn 0.3783 0.1244 -0.9173
vn -0.3783 0.1244 -0.9173
vn -0.9220 0.0500 -0.3839
vn -0.9220 -0.0452 0.3846
vn -0.3778 -0.0924 0.9213
vn 0.3778 -0.0924 0.9213
vn -0.3715 -0.3876 0.8437
vn -0.3715 -0.8437 0.3876
vn -0.3778 -0.9213 0.0924
vn -0.9200 -0.1900 0.3429
vn -0.9200 -0.3429 0.1900
vn -0.9220 -0.3846 0.0452
vn -0.9201 0.1974 -0.3383
vn -0.9201 0.3383 -0.1974
vn -0.9220 0.3839 -0.0500
vn -0.3739 0.4725 -0.7981
vn -0.3739 0.7981 -0.4725
vn -0.3783 0.9173 -0.1244
vn 0.3739 0.4725 -0.7981
vn 0.3739 0.7981 -0.4725
vn 0.3783 0.9173 -0.1244
vn 0.9201 0.1974 -0.3383
vn 0.9201 0.3383 -0.1974
vn 0.9220 0.3839 -0.0500
vn 0.9200 -0.1900 0.3429
vn 0.9200 -0.3429 0.1900
vn 0.9220 -0.3846 0.0452
vn 0.3715 -0.3876 0.8437
vn 0.3715 -0.8437 0.3876
vn 0.3778 -0.9213 0.0924
vn -0.9220 0.0461 -0.3845
vn -0.9220 -0.0495 0.3840
vn -0.3783 -0.1225 0.9175
vn 0.3783 -0.1225 0.9175
vn 0.9220 -0.0495 0.3840
vn 0.9220 0.0461 -0.3845
vn 0.3780 0.1008 -0.9203
vn -0.3780 0.1008 -0.9203
vn -0.9200 0.1916 -0.3418
vn -0.9200 0.3418 -0.1916
vn -0.9220 0.3845 -0.0461
vn -0.9201 -0.1968 0.3387
vn -0.9201 -0.3387 0.1968
vn -0.9220 -0.3840 0.0495
vn -0.3738 -0.4706 0.7993
vn -0.3738 -0.7993 0.4706
vn -0.3783 -0.9175 0.1225
vn 0.3738 -0.4706 0.7993
vn 0.3738 -0.7993 0.4706
vn 0.3783 -0.9175 0.1225
vn 0.9201 -0.1968 0.3387
vn 0.9201 -0.3387 0.1968
vn 0.9220 -0.3840 0.0495
vn 0.9200 0.1916 -0.3418
vn 0.9200 0.3418 -0.1916
vn 0.9220 0.3845 -0.0461
vn 0.3731 0.4301 -0.8221
vn 0.3731 0.8221 -0.4301
vn 0.3780 0.9203 -0.1008
vn -0.3731 0.4301 -0.8221
vn -0.3731 0.8221 -0.4301
vn -0.3780 0.9203 -0.1008
vt 0.917120 0.549275
vt 0.930261 0.517550
vt 0.831636 0.517550
vt 0.844778 0.549275
vt 0.968274 0.600429
vt 1.000000 0.587288
vt 0.761898 0.587288
vt 0.793624 0.600429
vt 0.761898 0.685913
vt 0.793624 0.672772
vt 0.831636 0.755652
vt 0.844778 0.723926
vt 0.930261 0.755652
vt 0.917120 0.723926
vt 0.968274 0.672772
vt 1.000000 0.685913
vt 0.968274 0.434670
vt 1.000000 0.447812
vt 1.000000 0.349187
vt 0.968274 0.362328
vt 0.917120 0.485824
vt 0.930262 0.279448
vt 0.917120 0.311174
vt 0.831637 0.279448
vt 0.844778 0.311174
vt 0.761898 0.349187
vt 0.793624 0.362328
vt 0.761898 0.447812
vt 0.793624 0.434670
vt 0.831637 0.517550
vt 0.844778 0.485824
vt 0.903197 0.214067
vt 0.829357 0.279448
vt 0.778640 0.206867
vt 0.868405 0.166013
vt 0.761898 0.755042
vt 0.688065 0.820429
vt 0.621412 0.723325
vt 0.711175 0.682465
vt 0.276222 0.478365
vt 0.181964 0.507387
vt 0.150238 0.381431
vt 0.247343 0.364182
vt 0.094258 0.507387
vt 0.000000 0.478365
vt 0.028880 0.364182
vt 0.125985 0.381431
vt 0.669641 0.410215
vt 0.595808 0.344827
vt 0.646531 0.272250
vt 0.736293 0.313110
vt 0.067459 0.507387
vt 0.141298 0.572767
vt 0.106507 0.620822
vt 0.016742 0.579968
vt 0.235603 0.676657
vt 0.141298 0.647785
vt 0.153529 0.602161
vt 0.250658 0.619272
vt 0.141298 0.705529
vt 0.250658 0.734042
vt 0.153529 0.751153
vt 0.155296 0.592022
vt 0.253921 0.592022
vt 0.153529 0.581883
vt 0.250658 0.564771
vt 0.141298 0.536259
vt 0.235603 0.507387
vt 0.098625 0.647111
vt 0.000000 0.647111
vt 0.106507 0.673400
vt 0.016742 0.714254
vt 0.141298 0.721454
vt 0.067459 0.786835
vt 0.663273 0.205107
vt 0.761898 0.205107
vt 0.646531 0.137965
vt 0.736293 0.097105
vt 0.595808 0.065387
vt 0.669641 0.000000
vt 0.039486 0.253693
vt 0.138111 0.253693
vt 0.028880 0.143205
vt 0.125985 0.125956
vt 0.000000 0.029022
vt 0.094258 0.000000
vt 0.236736 0.253693
vt 0.150238 0.125955
vt 0.247343 0.143205
vt 0.181964 -0.000000
vt 0.276222 0.029022
vt 0.595808 0.615322
vt 0.694433 0.615322
vt 0.621412 0.507320
vt 0.711175 0.548180
vt 0.688065 0.410215
vt 0.761898 0.475602
vt 0.761898 0.139724
vt 0.860523 0.139724
vt 0.778640 0.072581
vt 0.868405 0.113435
vt 0.829357 -0.000000
vt 0.903197 0.065381
vt 0.253921 0.761292
vt 0.155296 0.761292
vt 0.250658 0.788543
vt 0.153529 0.771431
vt 0.235603 0.845927
vt 0.141298 0.817055
vt 0.526919 0.766467
vt 0.499743 0.699769
vt 0.426539 0.724405
vt 0.465291 0.803429
vt 0.360713 0.746364
vt 0.405307 0.842166
vt 0.293199 0.765721
vt 0.339851 0.875253
vt 0.532179 0.437627
vt 0.578831 0.328094
vt 0.511317 0.308737
vt 0.466723 0.404539
vt 0.445491 0.286779
vt 0.406739 0.365802
vt 0.372287 0.262142
vt 0.345111 0.328841
vt 0.296290 0.244816
vt 0.276222 0.301123
vt 0.595808 0.738750
vt 0.575740 0.682442
vt 0.493338 0.656440
vt 0.414101 0.656440
vt 0.499743 0.613111
vt 0.426539 0.588475
vt 0.526919 0.546413
vt 0.465291 0.509451
vt 0.343917 0.656440
vt 0.360713 0.566516
vt 0.405307 0.470714
vt 0.276222 0.656440
vt 0.293199 0.547159
vt 0.339851 0.437627
vt 0.595808 0.218813
vt 0.528113 0.218813
vt 0.578831 0.109533
vt 0.511317 0.128890
vt 0.532179 0.000000
vt 0.466723 0.033087
vt 0.457929 0.218813
vt 0.445491 0.150848
vt 0.406739 0.071825
vt 0.378692 0.218813
vt 0.372287 0.175485
vt 0.345111 0.108786
vt 0.300403 0.218813
vt 0.296290 0.192811
vt 0.276222 0.136504
vt 0.571627 0.656440
vt 0.575740 0.630438
vt 0.595808 0.574131
s 1
usemtl Material.001
f 11/1/1 3/2/1 4/3/1 12/4/1
f 10/5/1 2/6/1 3/2/1 11/1/1
f 12/4/1 4/3/1 5/7/1 13/8/1
f 13/8/1 5/7/1 6/9/1 14/10/1
f 14/10/1 6/9/1 7/11/1 15/12/1
f 15/12/1 7/11/1 8/13/1 16/14/1
f 9/15/1 1/16/1 2/6/1 10/5/1
f 27/17/2 19/18/2 20/19/2 28/20/2
f 26/21/2 18/2/2 19/18/2 27/17/2
f 28/20/2 20/19/2 21/22/2 29/23/2
f 29/23/2 21/22/2 22/24/2 30/25/2
f 30/25/2 22/24/2 23/26/2 31/27/2
f 31/27/2 23/26/2 24/28/2 32/29/2
f 32/29/2 24/28/2 17/30/2 25/31/2
f 25/31/2 17/30/2 18/2/2 26/21/2
f 20/32/3 19/33/3 53/34/3 54/35/3
f 19/36/4 18/37/4 50/38/4 53/39/4
f 18/40/5 17/41/5 47/42/5 50/43/5
f 17/44/6 24/45/6 44/46/6 47/47/6
f 24/48/7 23/49/7 41/50/7 44/51/7
f 23/52/8 22/53/8 38/54/8 41/55/8
f 22/56/9 21/57/9 35/58/9 38/59/9
f 21/60/10 20/56/10 54/61/10 35/62/10
f 38/59/11 35/58/11 34/63/11 37/64/11
f 37/64/12 34/63/12 33/65/12 36/66/12
f 36/66/13 33/65/13 1/67/13 8/68/13
f 41/55/14 38/54/14 37/69/14 40/70/14
f 40/70/15 37/69/15 36/71/15 39/72/15
f 39/72/16 36/71/16 8/73/16 7/74/16
f 44/51/17 41/50/17 40/75/17 43/76/17
f 43/76/18 40/75/18 39/77/18 42/78/18
f 42/78/19 39/77/19 7/79/19 6/80/19
f 47/47/20 44/46/20 43/81/20 46/82/20
f 46/82/21 43/81/21 42/83/21 45/84/21
f 45/84/22 42/83/22 6/85/22 5/86/22
f 50/43/23 47/42/23 46/82/23 49/87/23
f 49/87/24 46/82/24 45/88/24 48/89/24
f 48/89/25 45/88/25 5/90/25 4/91/25
f 53/39/26 50/38/26 49/92/26 52/93/26
f 52/93/27 49/92/27 48/94/27 51/95/27
f 51/95/28 48/94/28 4/96/28 3/97/28
f 54/35/29 53/34/29 52/98/29 55/99/29
f 55/99/30 52/98/30 51/100/30 56/101/30
f 56/101/31 51/100/31 3/102/31 2/103/31
f 35/62/32 54/61/32 55/104/32 34/105/32
f 34/105/33 55/104/33 56/106/33 33/107/33
f 33/107/34 56/106/34 2/108/34 1/109/34
f 28/110/35 57/111/35 62/112/35 27/113/35
f 27/113/36 62/112/36 65/114/36 26/115/36
f 26/115/37 65/114/37 68/116/37 25/117/37
f 25/118/38 68/119/38 71/120/38 32/121/38
f 32/121/39 71/120/39 74/122/39 31/123/39
f 31/123/40 74/122/40 77/124/40 30/125/40
f 30/125/41 77/124/41 80/126/41 29/127/41
f 29/128/42 80/129/42 57/111/42 28/110/42
f 57/111/43 58/130/43 61/131/43 62/112/43
f 58/130/44 59/132/44 60/133/44 61/131/44
f 59/132/45 10/134/45 11/135/45 60/133/45
f 62/112/46 61/131/46 64/136/46 65/114/46
f 61/131/47 60/133/47 63/137/47 64/136/47
f 60/133/48 11/135/48 12/138/48 63/137/48
f 65/114/49 64/136/49 67/139/49 68/116/49
f 64/136/50 63/137/50 66/140/50 67/139/50
f 63/137/51 12/138/51 13/141/51 66/140/51
f 68/119/52 67/142/52 70/143/52 71/120/52
f 67/142/53 66/144/53 69/145/53 70/143/53
f 66/144/54 13/146/54 14/147/54 69/145/54
f 71/120/55 70/143/55 73/148/55 74/122/55
f 70/143/56 69/145/56 72/149/56 73/148/56
f 69/145/57 14/147/57 15/150/57 72/149/57
f 74/122/58 73/148/58 76/151/58 77/124/58
f 73/148/59 72/149/59 75/152/59 76/151/59
f 72/149/60 15/150/60 16/153/60 75/152/60
f 77/124/61 76/151/61 79/154/61 80/126/61
f 76/151/62 75/152/62 78/155/62 79/154/62
f 75/152/63 16/153/63 9/156/63 78/155/63
f 80/129/64 79/157/64 58/130/64 57/111/64
f 79/157/65 78/158/65 59/132/65 58/130/65
f 78/158/66 9/159/66 10/134/66 59/132/66
f 1/16/1 9/15/1 16/14/1 8/13/1
