# Blender 5.0.0
# www.blender.org
mtllib Back_3x1.mtl
o Cube.010
v 0.250000 -0.250000 -0.250000
v 0.250000 -0.250000 0.250000
v 0.250000 0.250000 -0.250000
v 0.250000 0.250000 0.250000
v -0.250000 -0.250000 -0.250000
v -0.250000 -0.250000 0.250000
v -0.250000 0.250000 -0.250000
v -0.250000 0.250000 0.250000
v 0.750000 -0.250000 -0.250000
v 0.750000 0.250000 -0.250000
v 0.750000 0.250000 0.250000
v 0.750000 -0.250000 0.250000
v 1.250000 -0.250000 -0.250000
v 1.250000 0.250000 -0.250000
v 1.250000 0.250000 0.250000
v 1.250000 -0.250000 0.250000
vn -0.1462 -0.6995 -0.6995
vn -0.6887 -0.5127 -0.5127
vn -0.6887 0.5127 -0.5127
vn -0.1462 0.6995 -0.6995
vn -0.1462 0.6995 0.6995
vn -0.6887 0.5127 0.5127
vn -0.6887 -0.5127 0.5127
vn -0.1462 -0.6995 0.6995
vn -0.0000 0.7071 -0.7071
vn -0.0000 -0.7071 -0.7071
vn -0.0000 -0.7071 0.7071
vn 0.6329 -0.6329 -0.4460
vn 0.4460 -0.6329 0.6329
vn -0.0000 0.7071 0.7071
vn 0.6329 0.6329 0.4460
vn 0.4460 0.6329 -0.6329
vt -0.000000 -0.000000
vt -0.000000 1.000000
vt -1.000000 1.000000
vt -1.000000 -0.000000
vt 0.000000 -0.000000
vt 1.000000 -0.000000
vt 1.000000 1.000000
vt 0.000000 1.000000
vt -1.000000 1.999999
vt -1.000000 1.000000
vt -0.000000 1.999999
vt 2.000000 -2.000000
vt 2.000000 -1.000000
vt 1.000000 -1.000000
vt 1.000000 -2.000000
vt -1.000000 -1.000000
vt 0.000000 -1.000000
vt 2.000000 -2.000000
vt 3.000000 -2.000000
vt 3.000000 -1.000000
vt 2.000000 -1.000000
vt 2.000000 -0.000000
vt 3.000000 -0.000000
vt 3.000000 1.000000
vt 2.000000 1.000000
vt 0.000000 -1.000000
vt 1.000000 -1.000000
vt 2.000000 -0.000000
vt 1.000000 -0.000000
vt 0.000000 -2.000000
vt 1.000000 -2.000000
vt 2.000000 1.000000
vt 1.000000 1.000000
vt -1.000000 -2.000000
vt 0.000000 -2.000000
vt 0.000000 1.999999
vt 1.000000 2.000000
s 1
usemtl Material.001
f 1/1/1 5/2/2 7/3/3 3/4/4
f 4/5/5 3/6/4 7/7/3 8/8/6
f 8/9/6 7/10/3 5/2/2 6/11/7
f 6/12/7 2/13/8 4/14/5 8/15/6
f 1/1/1 3/4/4 10/16/9 9/17/10
f 6/18/7 5/19/2 1/20/1 2/21/8
f 12/22/11 9/23/10 13/24/12 16/25/13
f 2/21/8 1/20/1 9/23/10 12/22/11
f 3/6/4 4/5/5 11/26/14 10/27/9
f 4/14/5 2/13/8 12/28/11 11/29/14
f 10/27/9 11/26/14 15/30/15 14/31/16
f 11/29/14 12/28/11 16/32/13 15/33/15
f 9/17/10 10/16/9 14/34/16 13/35/12
f 14/36/16 15/8/15 16/7/13 13/37/12
