# Blender 5.0.0
# www.blender.org
mtllib Back_4x4.mtl
o Cube.008
v 0.250000 -0.250000 -0.250000
v 0.250000 -0.250000 0.250000
v 0.250000 0.250000 -0.250000
v 0.250000 0.250000 0.250000
v -0.250000 -0.250000 -0.250000
v -0.250000 -0.250000 0.250000
v -0.250000 0.250000 -0.250000
v -0.250000 0.250000 0.250000
v 0.750000 -0.250000 -0.250000
v 0.750000 0.250000 -0.250000
v 0.750000 0.250000 0.250000
v 0.750000 -0.250000 0.250000
v 1.250000 -0.250000 -0.250000
v 1.250000 0.250000 -0.250000
v 1.250000 0.250000 0.250000
v 1.250000 -0.250000 0.250000
v 1.750000 -0.250000 -0.250000
v 1.750000 0.250000 -0.250000
v 1.750000 0.250000 0.250000
v 1.750000 -0.250000 0.250000
v 0.250000 0.250000 0.750000
v -0.250000 0.250000 0.750000
v -0.250000 -0.250000 0.750000
v 0.250000 -0.250000 0.750000
v 0.750000 -0.250000 0.750000
v 0.750000 0.250000 0.750000
v 1.250000 -0.250000 0.750000
v 1.250000 0.250000 0.750000
v 1.750000 -0.250000 0.750000
v 1.750000 0.250000 0.750000
v 0.250000 0.250000 1.250000
v -0.250000 0.250000 1.250000
v -0.250000 -0.250000 1.250000
v 0.250000 -0.250000 1.250000
v 0.750000 -0.250000 1.250000
v 0.750000 0.250000 1.250000
v 1.250000 -0.250000 1.250000
v 1.250000 0.250000 1.250000
v 1.750000 -0.250000 1.250000
v 1.750000 0.250000 1.250000
v 0.250000 0.250000 1.750000
v -0.250000 0.250000 1.750000
v -0.250000 -0.250000 1.750000
v 0.250000 -0.250000 1.750000
v 0.750000 -0.250000 1.750000
v 0.750000 0.250000 1.750000
v 1.250000 -0.250000 1.750000
v 1.250000 0.250000 1.750000
v 1.750000 -0.250000 1.750000
v 1.750000 0.250000 1.750000
vn -0.0000 -0.0000 -1.0000
vn -0.0000 1.0000 -0.0000
vn -1.0000 -0.0000 -0.0000
vn 1.0000 -0.0000 -0.0000
vn -0.0000 -1.0000 -0.0000
vn -0.0000 -0.0000 1.0000
vt -2.075000 4.075000
vt -2.075000 5.100000
vt -3.100000 5.100000
vt -3.100000 4.075000
vt -0.025000 -0.025000
vt 1.000000 -0.025000
vt 1.000000 1.000000
vt -0.025000 1.000000
vt -2.074999 2.025000
vt -2.074999 1.000000
vt -1.049999 1.000000
vt -1.049999 2.025000
vt -0.024999 4.075000
vt -1.049999 4.075000
vt -1.049999 3.050000
vt -0.024999 3.050000
vt -3.100000 3.050000
vt -2.075000 3.050000
vt 4.075000 -3.100000
vt 5.100000 -3.100000
vt 5.100000 -2.075000
vt 4.075000 -2.075000
vt 4.075000 -1.050000
vt 5.100000 -1.050000
vt 5.100000 -0.025000
vt 4.075000 -0.025000
vt -0.025000 -1.050000
vt 1.000000 -1.050000
vt -0.025000 -2.075000
vt -1.050000 -1.050000
vt -1.050000 -2.075000
vt 1.000000 -2.075000
vt -0.025000 -3.100000
vt 1.000000 -3.100000
vt 3.050000 -2.075000
vt 3.050000 -3.100000
vt -3.099999 2.025000
vt -2.075000 2.025000
vt -0.025000 5.100000
vt -1.050000 5.100000
vt -1.050000 -0.025000
vt -3.099999 1.000000
vt -2.075000 1.000000
vt 5.099999 1.000000
vt 4.074999 1.000000
vt -2.074999 3.050000
vt -1.050000 4.075000
vt -2.074999 4.075000
vt -1.050000 -3.100000
vt -2.075000 -2.075000
vt -2.075000 -3.100000
vt -1.050000 1.000000
vt -2.075000 1.000000
vt -2.075000 -0.025000
vt -0.024999 2.025000
vt 3.049999 1.000000
vt 3.050000 -0.025000
vt 3.050000 -1.050000
vt 2.025000 -2.075000
vt 2.025000 -1.050000
vt 1.000000 -1.050000
vt 1.000000 -2.075000
vt 2.025000 -0.025000
vt 1.000000 -0.025001
vt -2.075000 5.100000
vt -3.099999 -2.075000
vt -3.099999 -3.100000
vt 2.025000 1.000000
vt 2.025000 -3.100000
vt -2.075000 -1.050000
vt 1.000001 1.000000
vt 1.000001 2.025000
vt -0.024999 2.025000
vt -0.024999 1.000000
vt 1.000001 3.050000
vt -0.024999 3.050000
vt 1.000000 4.075000
vt -0.024999 4.074999
vt 1.000000 5.099999
vt -0.024999 5.099999
vt 1.000000 0.999999
vt 1.000000 -3.100000
vt -3.100000 -1.050000
vt -3.100000 -0.025000
vt -1.049999 1.000000
vt -0.024999 1.000000
vt -3.100000 1.000000
s 0
usemtl Material.001
f 1/1/1 5/2/1 7/3/1 3/4/1
f 4/5/2 3/6/2 7/7/2 8/8/2
f 8/9/3 7/10/3 5/11/3 6/12/3
f 20/13/4 19/14/4 30/15/4 29/16/4
f 1/1/1 3/4/1 10/17/1 9/18/1
f 6/19/5 5/20/5 1/21/5 2/22/5
f 12/23/5 9/24/5 13/25/5 16/26/5
f 2/22/5 1/21/5 9/24/5 12/23/5
f 3/6/2 4/5/2 11/27/2 10/28/2
f 15/29/2 11/27/2 26/30/2 28/31/2
f 14/32/2 15/29/2 19/33/2 18/34/2
f 10/28/2 11/27/2 15/29/2 14/32/2
f 6/19/5 2/22/5 24/35/5 23/36/5
f 9/18/1 10/17/1 14/37/1 13/38/1
f 20/13/4 17/39/4 18/40/4 19/14/4
f 11/27/2 4/5/2 21/41/2 26/30/2
f 13/38/1 14/37/1 18/42/1 17/43/1
f 16/26/5 13/25/5 17/44/5 20/45/5
f 22/46/3 23/15/3 33/47/3 32/48/3
f 30/49/2 28/31/2 38/50/2 40/51/2
f 21/41/2 22/52/2 32/53/2 31/54/2
f 29/16/4 30/15/4 40/12/4 39/55/4
f 16/26/5 20/45/5 29/56/5 27/57/5
f 8/9/3 6/12/3 23/15/3 22/46/3
f 4/5/2 8/8/2 22/52/2 21/41/2
f 2/22/5 12/23/5 25/58/5 24/35/5
f 12/23/5 16/26/5 27/57/5 25/58/5
f 19/33/2 15/29/2 28/31/2 30/49/2
f 34/59/5 35/60/5 45/61/5 44/62/5
f 35/60/5 37/63/5 47/64/5 45/61/5
f 32/48/3 33/47/3 43/40/3 42/65/3
f 40/51/2 38/50/2 48/66/2 50/67/2
f 25/58/5 27/57/5 37/63/5 35/60/5
f 24/35/5 25/58/5 35/60/5 34/59/5
f 27/57/5 29/56/5 39/68/5 37/63/5
f 23/36/5 24/35/5 34/59/5 33/69/5
f 28/31/2 26/30/2 36/70/2 38/50/2
f 26/30/2 21/41/2 31/54/2 36/70/2
f 43/71/6 44/72/6 41/73/6 42/74/6
f 41/73/6 44/72/6 45/75/6 46/76/6
f 46/76/6 45/75/6 47/77/6 48/78/6
f 48/78/6 47/77/6 49/79/6 50/80/6
f 37/63/5 39/68/5 49/81/5 47/64/5
f 33/69/5 34/59/5 44/62/5 43/82/5
f 38/50/2 36/70/2 46/83/2 48/66/2
f 36/70/2 31/54/2 41/84/2 46/83/2
f 39/55/4 40/12/4 50/85/4 49/86/4
f 31/54/2 32/53/2 42/87/2 41/84/2
