# Blender 5.0.1
# www.blender.org
mtllib Metal_Pipe_Straight.mtl
o rura_prosta
v 0.000000 -0.250000 -0.250000
v 0.000000 0.250000 -0.250000
v 0.176777 -0.250000 -0.176777
v 0.176777 0.250000 -0.176777
v 0.250000 -0.250000 -0.000000
v 0.250000 0.250000 -0.000000
v 0.176777 -0.250000 0.176777
v 0.176777 0.250000 0.176777
v 0.000000 -0.250000 0.250000
v 0.000000 0.250000 0.250000
v -0.176777 -0.250000 0.176777
v -0.176777 0.250000 0.176777
v -0.250000 -0.250000 -0.000000
v -0.250000 0.250000 -0.000000
v -0.176777 -0.250000 -0.176777
v -0.176777 0.250000 -0.176777
v 0.000000 -0.250000 -0.183378
v 0.129668 -0.250000 -0.129668
v 0.183378 -0.250000 -0.000000
v 0.129668 -0.250000 0.129668
v 0.000000 -0.250000 0.183378
v -0.129668 -0.250000 0.129668
v -0.183378 -0.250000 -0.000000
v -0.129668 -0.250000 -0.129668
v 0.000000 0.250000 -0.183378
v 0.129668 0.250000 -0.129668
v 0.183378 0.250000 -0.000000
v 0.129668 0.250000 0.129668
v 0.000000 0.250000 0.183378
v -0.129668 0.250000 0.129668
v -0.183378 0.250000 -0.000000
v -0.129668 0.250000 -0.129668
vn 0.3827 -0.0000 -0.9239
vn 0.9239 -0.0000 -0.3827
vn 0.9239 -0.0000 0.3827
vn 0.3827 -0.0000 0.9239
vn -0.3827 -0.0000 0.9239
vn -0.9239 -0.0000 0.3827
vn -0.0000 1.0000 -0.0000
vn -0.9239 -0.0000 -0.3827
vn -0.3827 -0.0000 -0.9239
vn -0.0000 -1.0000 -0.0000
vt 0.323538 0.319813
vt 0.323538 0.013520
vt 0.440751 0.013520
vt 0.440751 0.319813
vt 0.467791 0.319813
vt 0.467791 0.013520
vt 0.585005 0.013520
vt 0.585005 0.319813
vt 0.323538 0.653147
vt 0.323538 0.346853
vt 0.440751 0.346853
vt 0.440751 0.653147
vt 0.467791 0.653147
vt 0.467791 0.346853
vt 0.585005 0.346853
vt 0.585005 0.653147
vt 0.612045 0.319813
vt 0.612045 0.013520
vt 0.729258 0.013520
vt 0.729258 0.319813
vt 0.612045 0.653147
vt 0.612045 0.346853
vt 0.729258 0.346853
vt 0.729258 0.653147
vt 0.197998 0.258793
vt 0.258793 0.197998
vt 0.296498 0.213616
vt 0.213616 0.296498
vt 0.756298 0.319813
vt 0.756298 0.013520
vt 0.873512 0.013520
vt 0.873512 0.319813
vt 0.756298 0.653147
vt 0.756298 0.346853
vt 0.873512 0.346853
vt 0.873512 0.653147
vt 0.213616 0.323538
vt 0.296498 0.406420
vt 0.258793 0.422038
vt 0.197998 0.361243
vt 0.099497 0.939850
vt 0.013520 0.939850
vt 0.013520 0.633556
vt 0.099497 0.633556
vt 0.213616 0.606516
vt 0.096402 0.606516
vt 0.112020 0.568811
vt 0.197998 0.568811
vt 0.013520 0.406420
vt 0.096402 0.323538
vt 0.112020 0.361243
vt 0.051225 0.422038
vt 0.296498 0.523634
vt 0.258793 0.508016
vt 0.013520 0.523634
vt 0.051225 0.508016
vt 0.112020 0.258793
vt 0.096402 0.296498
vt 0.212515 0.939850
vt 0.126538 0.939850
vt 0.126538 0.633556
vt 0.212515 0.633556
vt 0.409516 0.986480
vt 0.323538 0.986480
vt 0.323538 0.680187
vt 0.409516 0.680187
vt 0.522533 0.986480
vt 0.436556 0.986480
vt 0.436556 0.680187
vt 0.522533 0.680187
vt 0.635551 0.986480
vt 0.549573 0.986480
vt 0.549573 0.680187
vt 0.635551 0.680187
vt 0.748568 0.986480
vt 0.662591 0.986480
vt 0.662591 0.680187
vt 0.748568 0.680187
vt 0.861586 0.986480
vt 0.775608 0.986480
vt 0.775608 0.680187
vt 0.861586 0.680187
vt 0.974603 0.986480
vt 0.888626 0.986480
vt 0.888626 0.680187
vt 0.974603 0.680187
vt 0.258793 0.112020
vt 0.296498 0.096402
vt 0.197998 0.051225
vt 0.213616 0.013520
vt 0.112020 0.051225
vt 0.096402 0.013520
vt 0.051225 0.112020
vt 0.013520 0.096402
vt 0.051225 0.197998
vt 0.013520 0.213616
s 0
usemtl Material.002
f 1/1/1 2/2/1 4/3/1 3/4/1
f 3/5/2 4/6/2 6/7/2 5/8/2
f 5/9/3 6/10/3 8/11/3 7/12/3
f 7/13/4 8/14/4 10/15/4 9/16/4
f 9/17/5 10/18/5 12/19/5 11/20/5
f 11/21/6 12/22/6 14/23/6 13/24/6
f 27/25/7 28/26/7 8/27/7 6/28/7
f 13/29/8 14/30/8 16/31/8 15/32/8
f 15/33/9 16/34/9 2/35/9 1/36/9
f 7/37/10 9/38/10 21/39/10 20/40/10
f 20/41/9 21/42/9 29/43/9 28/44/9
f 13/45/10 15/46/10 24/47/10 23/48/10
f 3/49/10 5/50/10 19/51/10 18/52/10
f 9/38/10 11/53/10 22/54/10 21/39/10
f 15/46/10 1/55/10 17/56/10 24/47/10
f 1/55/10 3/49/10 18/52/10 17/56/10
f 5/50/10 7/37/10 20/40/10 19/51/10
f 11/53/10 13/45/10 23/48/10 22/54/10
f 26/57/7 27/25/7 6/28/7 4/58/7
f 18/59/6 19/60/6 27/61/6 26/62/6
f 23/63/3 24/64/3 32/65/3 31/66/3
f 21/67/1 22/68/1 30/69/1 29/70/1
f 19/71/8 20/72/8 28/73/8 27/74/8
f 17/75/5 18/76/5 26/77/5 25/78/5
f 24/79/4 17/80/4 25/81/4 32/82/4
f 22/83/2 23/84/2 31/85/2 30/86/2
f 28/26/7 29/87/7 10/88/7 8/27/7
f 29/87/7 30/89/7 12/90/7 10/88/7
f 30/89/7 31/91/7 14/92/7 12/90/7
f 31/91/7 32/93/7 16/94/7 14/92/7
f 32/93/7 25/95/7 2/96/7 16/94/7
f 25/95/7 26/57/7 4/58/7 2/96/7
