# Blender 5.0.1
# www.blender.org
mtllib Back_Wall_2.mtl
o b2
v 0.840910 -1.539774 1.215909
v 0.840910 -1.039774 1.215909
v 0.840910 -1.539774 0.715909
v 0.840910 -1.039774 0.715909
v 1.340910 -1.539774 1.215909
v 1.340910 -1.039774 1.215909
v 1.340910 -1.539774 0.715909
v 1.340910 -1.039774 0.715909
v 0.340910 -1.539774 0.715909
v 0.340910 -1.539774 1.215909
v 0.340910 -1.039774 1.215909
v 0.340910 -1.039774 0.715909
v -0.159090 -1.539774 0.715909
v -0.159090 -1.539774 1.215909
v -0.159090 -1.039774 1.215909
v -0.159090 -1.039774 0.715909
v -0.659090 -1.539774 0.715909
v -0.659090 -1.539774 1.215909
v -0.659090 -1.039774 1.215909
v -0.659090 -1.039774 0.715909
v -1.159090 -1.539774 0.715909
v -1.159090 -1.539774 1.215909
v -1.159090 -1.039774 1.215909
v -1.159090 -1.039774 0.715909
v -1.659090 -1.539774 0.715909
v -1.659090 -1.539774 1.215909
v -1.659090 -1.039774 1.215909
v -1.659090 -1.039774 0.715909
v 0.340910 -0.539774 1.215909
v 0.340910 -0.539774 0.715909
v -0.159090 -0.539774 1.215909
v -0.159090 -0.539774 0.715909
v -0.659090 -0.539774 1.215909
v -0.659090 -0.539774 0.715909
v -1.159090 -0.539774 1.215909
v -1.159090 -0.539774 0.715909
v -1.659090 -0.539774 1.215909
v -1.659090 -0.539774 0.715909
v 0.840910 -1.039774 -0.284091
v 0.840910 -1.539774 -0.284091
v 1.340910 -1.539774 -0.284091
v 1.340910 -1.039774 -0.284091
v 0.340910 -1.039774 -0.284091
v 0.340910 -1.539774 -0.284091
v -0.159090 -1.039774 -0.284091
v -0.159090 -1.539774 -0.284091
v -0.659090 -0.539774 -0.284091
v -0.659090 -1.039774 -0.284091
v -1.159090 -1.039774 -0.284091
v -1.159090 -0.539774 -0.284091
v -1.659090 -1.039774 -0.284091
v 0.340910 -0.539774 -0.284091
v -0.159090 1.460226 -0.784091
v -1.659090 -0.539774 -0.284091
v 0.840910 -1.039774 -1.284091
v 0.840910 -1.539774 -1.284091
v 1.340910 -1.539774 -1.284091
v 1.340910 -1.039774 -1.284091
v 0.340910 -1.039774 -1.284091
v 0.340910 -1.539774 -1.284091
v -0.159090 -1.039774 -1.284091
v -0.159090 -1.539774 -1.284091
v -0.659090 -0.539774 -1.284091
v -0.659090 -1.039774 -1.284091
v -1.159090 -1.039774 -1.284091
v -1.159090 -0.539774 -1.284091
v -1.659090 -1.039774 -1.284091
v 0.340910 -0.539774 -1.284091
v -0.159090 -0.539774 -1.284091
v -1.659090 -0.539774 -1.284091
v 0.340910 -0.539774 0.215909
v 0.340910 -1.039774 0.215909
v 1.340910 -1.539774 0.215909
v 0.840910 -1.539774 0.215909
v -1.659090 -0.539774 0.215909
v -1.159090 -0.539774 0.215909
v -1.659090 -1.039774 0.215909
v -1.159090 -1.039774 0.215909
v -0.159090 -1.539774 0.215909
v 0.340910 -1.539774 0.215909
v 1.340910 -1.039774 0.215909
v 0.840910 -1.039774 0.215909
v -0.659090 -1.039774 0.215909
v 0.340910 1.460226 -0.784091
v -0.659090 -0.539774 0.215909
v -0.159090 -1.039774 0.215909
v 0.340910 -1.039774 -0.784091
v 0.840910 -1.039774 -0.784091
v -0.659090 -1.039774 -0.784091
v -1.159090 -1.039774 -0.784091
v 0.840910 -1.539774 -0.784091
v 0.340910 -1.539774 -0.784091
v 0.340910 -0.539774 -0.784091
v -1.659090 -1.039774 -0.784091
v -0.159090 -1.039774 -0.784091
v -0.159090 -1.539774 -0.784091
v -0.159090 -0.539774 -0.784091
v 1.340910 -1.539774 -0.784091
v -0.659090 -0.539774 -0.784091
v 1.340910 -1.039774 -0.784091
v -1.159090 -0.539774 -0.784091
v -1.659090 -0.539774 -0.784091
v 0.840910 -0.539774 1.215909
v 0.840910 -0.539774 0.715909
v -0.159090 0.960226 -0.784091
v 0.340910 0.960226 -0.784091
v -0.659090 0.460226 0.715909
v -0.159090 0.460226 0.715909
v 0.340910 0.460226 0.715909
v 0.840910 -0.539774 -0.784091
v 0.840910 -0.539774 -1.284091
v 0.840910 -0.539774 -0.284091
v 0.840910 -0.539774 0.215909
v 0.840910 0.960226 -0.784091
v -0.659090 0.460226 -0.284091
v -0.659090 0.960226 0.215909
v -0.659090 0.460226 0.215909
v 0.340910 0.460226 -0.784091
v -0.159090 0.460226 -0.784091
v -0.659090 0.460226 -0.784091
v 0.840910 0.460226 0.215909
v 0.840910 0.460226 0.715909
v 0.840910 0.460226 -0.284091
v 0.840910 0.460226 -0.784091
v -0.659090 1.460226 -0.784091
v -0.159090 2.960227 0.215909
v -0.659090 1.460226 0.215909
v -0.659090 2.960227 -0.784091
v -0.659090 1.460226 -0.284091
v -0.159090 1.460226 0.715909
v -0.159090 2.960227 -0.784091
v 0.340910 2.960227 -0.784091
v -0.659090 1.460226 0.715909
v 0.340910 1.460226 0.715909
v 0.840910 1.460226 0.215909
v 0.840910 1.460226 0.715909
v 0.840910 1.460226 -0.284091
v 0.840910 1.460226 -0.784091
v 0.840910 0.960226 -0.284091
v -0.659090 0.960226 -0.784091
v -0.659090 0.960226 -0.284091
v -0.659090 0.960226 0.715909
v -0.159090 0.960226 0.715909
v 0.840910 0.960226 0.215909
v 0.340910 0.960226 0.715909
v 0.840910 0.960226 0.715909
v 0.340910 2.460227 -0.784091
v -0.159090 2.460227 -0.784091
v -0.659090 2.460227 -0.784091
v -0.659090 2.460227 0.215909
v -0.659090 2.460227 -0.284091
v -0.159090 2.460227 0.715909
v -0.659090 2.460227 0.715909
v 0.340910 2.460227 0.715909
v 0.840910 2.460227 0.215909
v 0.840910 2.460227 0.715909
v 0.840910 2.460227 -0.284091
v 0.840910 2.460227 -0.784091
v -0.659090 2.960227 0.215909
v 0.340910 2.960227 0.215909
v -0.659090 2.960227 -0.284091
v -0.159090 2.960227 0.715909
v 0.340910 2.960227 -0.284091
v -0.159090 2.960227 -0.284091
v -0.659090 2.960227 0.715909
v 0.340910 2.960227 0.715909
v 0.840910 2.960227 0.215909
v 0.840910 2.960227 0.715909
v 0.840910 2.960227 -0.284091
v 0.840910 2.960227 -0.784091
v 1.340910 -0.539774 0.715909
v 1.340910 -0.539774 1.215909
v 1.340910 -0.539774 -0.284091
v 1.340910 -0.539774 0.215909
v 1.340910 -0.539774 -1.284091
v 1.340910 -0.539774 -0.784091
vn -0.0000 -1.0000 -0.0000
vn 1.0000 -0.0000 -0.0000
vn -0.0000 -0.0000 1.0000
vn -1.0000 -0.0000 -0.0000
vn -0.0000 -0.0000 -1.0000
vn -0.0000 1.0000 -0.0000
vt 0.656667 1.177222
vt 0.813333 1.177222
vt 0.813333 1.333889
vt 0.656667 1.333889
vt 1.440000 0.550556
vt 1.440000 0.707222
vt 1.283334 0.707222
vt 1.283334 0.550556
vt 1.596667 0.393889
vt 1.440000 0.393889
vt 1.440000 0.237222
vt 1.596667 0.237222
vt 0.500000 0.080556
vt 0.343333 0.080556
vt 0.343333 -0.076111
vt 0.500000 -0.076111
vt 0.656667 0.863889
vt 0.656667 1.020556
vt 0.500000 1.020556
vt 0.500000 0.863889
vt 0.813333 0.707222
vt 0.813333 0.550556
vt 0.970000 0.550556
vt 0.970000 0.707222
vt 0.343333 -0.232778
vt 0.500000 -0.232778
vt 1.440000 -0.232778
vt 1.283334 -0.232778
vt 1.283334 -0.389445
vt 1.440000 -0.389445
vt 0.500000 0.707222
vt 0.656667 0.707222
vt 0.970000 1.177222
vt 0.970000 1.333889
vt 0.500000 0.550556
vt 0.656667 0.550556
vt 0.343333 1.020555
vt 0.500000 1.020555
vt 0.500000 1.177222
vt 0.343333 1.177222
vt 0.343333 -0.389445
vt 0.500000 -0.389444
vt 0.656667 0.393889
vt 0.500000 0.393889
vt 0.500000 0.237222
vt 0.656667 0.237222
vt 1.753334 -0.859445
vt 1.910000 -0.859445
vt 1.910000 -0.702778
vt 1.753334 -0.702778
vt 0.343333 -0.546111
vt 0.500000 -0.546111
vt 1.753334 -0.546111
vt 1.910000 -0.546111
vt 1.910000 -0.389445
vt 1.753334 -0.389445
vt 0.343333 -0.702778
vt 0.500000 -0.702778
vt 0.186667 -0.232778
vt 0.186667 -0.389445
vt 1.283334 1.803889
vt 1.126667 1.803889
vt 1.126667 1.647222
vt 1.283334 1.647222
vt 0.343333 -0.859445
vt 0.500000 -0.859445
vt 0.813333 1.020556
vt 0.813333 0.863889
vt 0.970000 0.863889
vt 0.970000 1.020556
vt 0.500000 0.080556
vt 0.656667 0.080556
vt 0.656667 -0.546111
vt 0.656667 -0.389445
vt 0.500000 -0.389445
vt 0.656667 -0.232778
vt 0.500000 -0.232778
vt 0.656667 -0.076111
vt 0.656667 0.080556
vt 0.970000 1.803889
vt 0.970000 1.647222
vt 0.186667 -0.546111
vt 0.186667 -0.702778
vt 0.186667 -0.859445
vt 0.813333 0.080556
vt 0.813333 -0.076111
vt 0.970000 -0.076111
vt 0.970000 0.080556
vt 0.500000 0.707222
vt 0.500000 0.863889
vt 0.343333 0.863889
vt 0.343333 0.707222
vt 1.126667 -0.389444
vt 1.126667 -0.546111
vt 1.283334 -0.546111
vt 1.283334 -0.389444
vt 1.753334 0.393889
vt 1.596667 0.393889
vt 1.753334 0.237222
vt 0.813333 1.490556
vt 0.970000 1.490556
vt 0.970000 1.647223
vt 0.813333 1.647223
vt 0.343333 1.333889
vt 0.500000 1.333889
vt 0.500000 1.490556
vt 0.343333 1.490556
vt 0.343333 0.237222
vt 0.186667 0.237222
vt 0.186667 0.080556
vt 0.656667 1.490556
vt 0.656667 1.647223
vt 1.126667 0.863889
vt 1.126667 0.707222
vt 1.283334 0.707222
vt 1.283334 0.863889
vt 1.440000 0.237222
vt 1.440000 -0.076111
vt 1.596667 -0.076111
vt 1.596667 0.550556
vt 1.596667 0.707222
vt 1.126667 1.490556
vt 0.970000 1.490556
vt 0.970000 1.333889
vt 1.126667 1.333889
vt 1.753334 0.707222
vt 1.596667 0.707222
vt 1.596667 0.550556
vt 1.753334 0.550556
vt 0.813333 -0.232778
vt 0.970000 -0.232778
vt -0.283333 0.393889
vt -0.283333 0.550556
vt -0.440000 0.550556
vt -0.440000 0.393889
vt 0.186667 0.393889
vt -0.126667 0.393889
vt -0.126667 0.237222
vt 0.500000 1.177222
vt 0.500000 1.333889
vt 0.186667 0.863889
vt 0.186667 1.020555
vt 0.186667 0.707222
vt 0.186667 1.177222
vt 0.186667 1.333889
vt 0.030000 1.333889
vt 0.030000 1.177222
vt 0.186667 1.490556
vt 0.186667 1.647222
vt 0.030000 1.647222
vt 0.030000 1.490556
vt 0.030000 1.020555
vt 1.126667 1.020556
vt 1.283334 1.020556
vt 1.126667 -0.232778
vt 1.126667 0.550556
vt 1.283334 0.550556
vt 1.126667 -0.076111
vt 1.283334 -0.076111
vt 1.440000 0.863889
vt 1.596667 0.863889
vt 1.596667 1.020556
vt 1.440000 1.020556
vt 1.126667 0.080556
vt 1.283333 0.080556
vt 0.500000 1.490556
vt 0.500000 1.647223
vt 1.126667 1.177222
vt 0.970000 1.177222
vt 0.970000 1.020555
vt 1.126667 1.020555
vt 0.500000 1.020556
vt 0.656667 1.020556
vt 1.283334 0.237222
vt 0.343333 0.393889
vt 0.343333 0.550556
vt 0.186667 0.550556
vt 1.753334 0.863889
vt 1.596667 0.863889
vt -0.126667 0.550556
vt 1.283334 0.393889
vt -0.596667 1.803889
vt -0.753333 1.803889
vt -0.753333 1.490556
vt -0.596667 1.490556
vt 0.186667 -0.076111
vt -0.910000 1.803889
vt -0.910000 1.490556
vt 0.656667 -0.702778
vt 1.126667 -0.702778
vt 1.283334 -0.702778
vt 1.753334 0.237222
vt 1.753334 -0.076111
vt -0.440000 1.803889
vt -0.440000 1.490556
vt -0.126667 1.803889
vt -0.283333 1.803889
vt -0.283333 1.490556
vt -0.126667 1.490556
vt -0.126667 1.333889
vt -0.283333 1.333889
vt -0.283333 1.177222
vt -0.126667 1.177222
vt 0.030000 0.863889
vt 0.343333 0.707222
vt 0.186667 0.707222
vt -0.596667 1.333889
vt -0.753333 1.333889
vt -0.753333 1.177222
vt -0.596667 1.177222
vt -0.283333 0.237222
vt -0.440000 0.237222
vt 1.753334 -0.232778
vt 1.596667 -0.232778
vt 1.596667 -0.389445
vt 1.753334 -0.389445
vt -0.440000 1.333889
vt -0.440000 1.177222
vt -0.283333 0.080555
vt -0.440000 0.080555
vt -0.910000 1.333889
vt -0.910000 1.177222
vt -0.126667 0.080556
vt 0.030000 1.803889
vt 0.030000 1.490556
vt -0.753333 0.863889
vt -0.596667 0.863889
vt -0.440000 0.863889
vt -0.283333 0.863889
vt -0.753334 0.393889
vt -0.753334 0.237222
vt 1.440000 -0.702778
vt 1.596667 -0.702778
vt 1.753334 -0.702778
vt -0.753334 0.080555
vt -0.126667 0.863889
vt 0.030000 1.333889
vt -0.910000 0.393889
vt -0.910000 0.237222
vt -0.440000 0.707222
vt -0.283333 0.707222
vt 1.440000 -0.859445
vt 1.596667 -0.859445
vt -0.596667 0.707222
vt -0.910000 0.080555
vt -0.126667 0.707222
vt 1.283334 -0.859445
vt -0.910000 0.863889
vt -0.910000 0.707222
vt -0.753333 0.707222
vt -0.753334 0.550555
vt 1.596667 1.490556
vt 1.596667 1.333889
vt 1.753334 1.333889
vt 1.753334 1.490556
vt 1.283334 1.490556
vt 1.283334 1.333889
vt 1.440000 1.333889
vt 1.440000 1.490556
vt 1.283334 1.177222
vt 1.440000 1.177222
vt 1.596667 1.177222
vt 1.753334 1.177222
vt 1.440000 1.020556
vt 1.596667 1.020556
vt 1.753334 1.020556
vt -0.910000 0.550555
vt 0.030000 0.707222
vt 0.813333 -0.702778
vt 0.813333 -0.859445
vt 0.970000 -0.859445
vt 0.970000 -0.702778
vt 0.656667 -0.859445
vt 1.126667 -0.859445
vt 1.283334 -0.859444
vt 1.283334 1.020556
vt 1.283334 0.863889
vt 0.030000 0.707222
s 0
usemtl Material.002
f 83/1/1 78/2/1 49/3/1 48/4/1
f 81/5/2 42/6/2 173/7/2 174/8/2
f 7/9/2 8/10/2 6/11/2 5/12/2
f 5/13/3 6/14/3 2/15/3 1/16/3
f 3/17/1 7/18/1 5/19/1 1/20/1
f 80/21/1 79/22/1 46/23/1 44/24/1
f 1/16/3 2/15/3 11/25/3 10/26/3
f 116/27/4 142/28/4 133/29/4 127/30/4
f 3/17/1 1/20/1 10/31/1 9/32/1
f 78/2/1 77/33/1 51/34/1 49/3/1
f 9/32/1 10/31/1 14/35/1 13/36/1
f 71/37/2 72/38/2 43/39/2 52/40/2
f 10/26/3 11/25/3 15/41/3 14/42/3
f 17/43/1 18/44/1 22/45/1 21/46/1
f 13/36/1 14/35/1 18/44/1 17/43/1
f 16/47/5 13/48/5 17/49/5 20/50/5
f 14/42/3 15/41/3 19/51/3 18/52/3
f 24/53/5 21/54/5 25/55/5 28/56/5
f 20/50/5 17/49/5 21/54/5 24/53/5
f 18/52/3 19/51/3 23/57/3 22/58/3
f 15/41/3 11/25/3 29/59/3 31/60/3
f 26/61/4 27/62/4 28/63/4 25/64/4
f 22/58/3 23/57/3 27/65/3 26/66/3
f 73/67/1 74/68/1 40/69/1 41/70/1
f 21/46/1 22/45/1 26/71/1 25/72/1
f 29/52/6 30/73/6 32/74/6 31/75/6
f 31/75/6 32/74/6 34/76/6 33/77/6
f 33/77/6 34/76/6 36/78/6 35/16/6
f 35/16/6 36/78/6 38/79/6 37/13/6
f 28/63/4 27/62/4 37/80/4 38/81/4
f 23/57/3 19/51/3 33/82/3 35/83/3
f 27/65/3 23/57/3 35/83/3 37/84/3
f 19/51/3 15/41/3 31/60/3 33/82/3
f 75/85/6 76/86/6 50/87/6 54/88/6
f 11/89/2 12/90/2 30/91/2 29/92/2
f 97/93/6 93/94/6 68/95/6 69/96/6
f 96/97/4 95/98/4 61/12/4 62/99/4
f 90/100/1 94/101/1 67/102/1 65/103/1
f 93/104/2 87/105/2 59/106/2 68/107/2
f 4/14/2 82/108/2 113/109/2 104/110/2
f 89/111/1 90/100/1 65/103/1 64/112/1
f 91/113/1 92/114/1 60/115/1 56/116/1
f 47/12/4 85/117/4 117/118/4 115/119/4
f 81/5/2 73/120/2 41/121/2 42/6/2
f 77/122/4 75/123/4 54/124/4 51/125/4
f 79/126/4 86/127/4 45/128/4 46/129/4
f 76/86/6 85/130/6 47/131/6 50/87/6
f 74/68/1 80/21/1 44/24/1 40/69/1
f 139/132/2 114/133/2 138/134/2 137/135/2
f 113/109/2 112/136/2 123/137/2 121/138/2
f 86/139/1 83/1/1 48/4/1 45/140/1
f 55/141/5 56/91/5 60/37/5 59/142/5
f 56/91/5 55/141/5 58/143/5 57/92/5
f 61/144/5 64/145/5 63/146/5 69/147/5
f 65/148/5 67/149/5 70/150/5 66/151/5
f 59/142/5 60/37/5 62/40/5 61/144/5
f 64/145/5 65/148/5 66/151/5 63/146/5
f 59/142/5 61/144/5 69/147/5 68/152/5
f 98/153/1 91/113/1 56/116/1 57/154/1
f 99/155/6 97/93/6 69/96/6 63/28/6
f 92/114/1 96/156/1 62/157/1 60/115/1
f 101/158/6 99/155/6 63/28/6 66/159/6
f 100/160/2 98/161/2 57/162/2 58/163/2
f 102/164/6 101/158/6 66/159/6 70/165/6
f 95/166/1 89/111/1 64/112/1 61/167/1
f 94/168/4 102/169/4 70/170/4 67/171/4
f 16/172/1 20/173/1 83/1/1 86/139/1
f 85/117/4 34/174/4 107/159/4 117/118/4
f 39/175/2 88/176/2 110/177/2 112/136/2
f 3/17/1 9/32/1 80/21/1 74/68/1
f 36/78/6 34/76/6 85/130/6 76/86/6
f 13/178/4 16/179/4 86/127/4 79/126/4
f 28/63/4 38/81/4 75/123/4 77/122/4
f 8/10/2 7/9/2 73/120/2 81/5/2
f 112/136/2 110/177/2 124/180/2 123/137/2
f 38/79/6 36/78/6 76/86/6 75/85/6
f 7/18/1 3/17/1 74/68/1 73/67/1
f 30/91/2 12/90/2 72/38/2 71/37/2
f 24/67/1 28/70/1 77/33/1 78/2/1
f 9/32/1 13/36/1 79/22/1 80/21/1
f 20/173/1 24/67/1 78/2/1 83/1/1
f 51/125/4 54/124/4 102/169/4 94/168/4
f 45/140/1 48/4/1 89/111/1 95/166/1
f 54/88/6 50/87/6 101/158/6 102/164/6
f 42/6/2 41/121/2 98/161/2 100/160/2
f 50/87/6 47/131/6 99/155/6 101/158/6
f 6/11/2 8/10/2 171/181/2 172/174/2
f 44/24/1 46/23/1 96/156/1 92/114/1
f 32/182/3 30/183/3 109/184/3 108/185/3
f 41/70/1 40/69/1 91/113/1 98/153/1
f 40/69/1 44/24/1 92/114/1 91/113/1
f 48/4/1 49/3/1 90/100/1 89/111/1
f 2/15/2 4/14/2 104/110/2 103/186/2
f 52/40/2 43/39/2 87/105/2 93/104/2
f 49/3/1 51/34/1 94/101/1 90/100/1
f 46/129/4 45/128/4 95/98/4 96/97/4
f 30/183/3 104/187/3 122/188/3 109/184/3
f 103/58/6 104/189/6 30/73/6 29/52/6
f 93/94/6 110/190/6 111/191/6 68/95/6
f 99/192/4 47/12/4 115/119/4 120/193/4
f 34/194/3 32/182/3 108/185/3 107/195/3
f 93/196/5 97/197/5 119/198/5 118/199/5
f 82/108/2 39/175/2 112/136/2 113/109/2
f 106/200/5 105/201/5 53/202/5 84/203/5
f 11/25/3 2/15/3 103/186/3 29/59/3
f 55/141/5 59/142/5 68/152/5 111/204/5
f 88/176/2 55/205/2 111/206/2 110/177/2
f 143/207/3 145/208/3 134/209/3 130/210/3
f 144/211/2 139/132/2 137/135/2 135/212/2
f 140/213/4 141/214/4 129/215/4 125/216/4
f 142/217/3 143/207/3 130/210/3 133/218/3
f 146/219/2 144/211/2 135/212/2 136/220/2
f 145/208/3 146/221/3 136/222/3 134/209/3
f 97/197/5 99/194/5 120/195/5 119/198/5
f 104/110/2 113/109/2 121/138/2 122/223/2
f 110/224/5 93/196/5 118/199/5 124/225/5
f 130/210/3 134/209/3 154/226/3 152/227/3
f 53/202/5 125/218/5 149/228/5 148/229/5
f 135/212/2 137/135/2 157/230/2 155/231/2
f 129/215/4 127/30/4 150/232/4 151/233/4
f 133/218/3 130/210/3 152/227/3 153/228/3
f 125/216/4 129/215/4 151/233/4 149/234/4
f 136/220/2 135/212/2 155/231/2 156/235/2
f 84/203/5 53/202/5 148/229/5 147/236/5
f 127/30/4 133/29/4 153/191/4 150/232/4
f 141/214/4 116/27/4 127/30/4 129/215/4
f 114/237/5 106/200/5 84/203/5 138/147/5
f 105/201/5 140/217/5 125/218/5 53/202/5
f 119/198/5 120/195/5 140/217/5 105/201/5
f 124/225/5 118/199/5 106/200/5 114/237/5
f 115/119/4 117/118/4 116/27/4 141/214/4
f 109/184/3 122/188/3 146/221/3 145/208/3
f 122/223/2 121/138/2 144/211/2 146/219/2
f 107/195/3 108/185/3 143/207/3 142/217/3
f 120/193/4 115/119/4 141/214/4 140/213/4
f 121/138/2 123/137/2 139/132/2 144/211/2
f 108/185/3 109/184/3 145/208/3 143/207/3
f 118/199/5 119/198/5 105/201/5 106/200/5
f 123/137/2 124/180/2 114/133/2 139/132/2
f 117/118/4 107/159/4 142/28/4 116/27/4
f 155/231/2 157/230/2 169/238/2 167/239/2
f 148/229/5 149/228/5 128/240/5 131/241/5
f 151/233/4 150/232/4 159/242/4 161/243/4
f 153/228/3 152/227/3 162/244/3 165/240/3
f 149/234/4 151/233/4 161/243/4 128/47/4
f 156/235/2 155/231/2 167/239/2 168/245/2
f 147/236/5 148/229/5 131/241/5 132/246/5
f 150/232/4 153/191/4 165/247/4 159/242/4
f 154/226/3 156/248/3 168/249/3 166/250/3
f 137/135/2 138/134/2 158/251/2 157/230/2
f 138/147/5 84/203/5 147/236/5 158/204/5
f 134/209/3 136/222/3 156/248/3 154/226/3
f 161/252/6 164/253/6 131/254/6 128/255/6
f 165/256/6 162/257/6 126/258/6 159/259/6
f 162/257/6 166/260/6 160/261/6 126/258/6
f 126/258/6 160/261/6 163/262/6 164/253/6
f 159/259/6 126/258/6 164/253/6 161/252/6
f 164/253/6 163/262/6 132/263/6 131/254/6
f 160/261/6 167/264/6 169/265/6 163/262/6
f 166/260/6 168/154/6 167/264/6 160/261/6
f 163/262/6 169/265/6 170/266/6 132/263/6
f 152/227/3 154/226/3 166/250/3 162/244/3
f 157/230/2 158/251/2 170/267/2 169/238/2
f 158/204/5 147/236/5 132/246/5 170/268/5
f 113/269/6 174/270/6 173/271/6 112/272/6
f 171/273/6 104/189/6 103/58/6 172/66/6
f 110/190/6 176/274/6 175/275/6 111/191/6
f 104/189/6 171/273/6 174/270/6 113/269/6
f 112/272/6 173/271/6 176/274/6 110/190/6
f 8/10/2 81/5/2 174/8/2 171/181/2
f 100/160/2 58/163/2 175/276/2 176/277/2
f 58/143/5 55/141/5 111/204/5 175/278/5
f 42/6/2 100/160/2 176/277/2 173/7/2
f 2/15/3 6/14/3 172/110/3 103/186/3
