# Blender 5.0.0
# www.blender.org
mtllib Back_8x6.mtl
o Cube.012
v 0.250000 -0.250000 -0.250000
v 0.250000 -0.250000 0.250000
v 0.250000 0.250000 -0.250000
v 0.250000 0.250000 0.250000
v -0.250000 -0.250000 -0.250000
v -0.250000 -0.250000 0.250000
v -0.250000 0.250000 -0.250000
v -0.250000 0.250000 0.250000
v 0.750000 -0.250000 -0.250000
v 0.750000 0.250000 -0.250000
v 0.750000 0.250000 0.250000
v 0.750000 -0.250000 0.250000
v 1.250000 -0.250000 -0.250000
v 1.250000 0.250000 -0.250000
v 1.250000 0.250000 0.250000
v 1.250000 -0.250000 0.250000
v 1.750000 -0.250000 -0.250000
v 1.750000 0.250000 -0.250000
v 1.750000 0.250000 0.250000
v 1.750000 -0.250000 0.250000
v 0.250000 0.250000 0.750000
v -0.250000 0.250000 0.750000
v -0.250000 -0.250000 0.750000
v 0.250000 -0.250000 0.750000
v 0.750000 -0.250000 0.750000
v 0.750000 0.250000 0.750000
v 1.250000 -0.250000 0.750000
v 1.250000 0.250000 0.750000
v 1.750000 -0.250000 0.750000
v 1.750000 0.250000 0.750000
v 0.250000 0.250000 1.250000
v -0.250000 0.250000 1.250000
v -0.250000 -0.250000 1.250000
v 0.250000 -0.250000 1.250000
v 0.750000 -0.250000 1.250000
v 0.750000 0.250000 1.250000
v 1.250000 -0.250000 1.250000
v 1.250000 0.250000 1.250000
v 1.750000 -0.250000 1.250000
v 1.750000 0.250000 1.250000
v 0.250000 0.250000 1.750000
v -0.250000 0.250000 1.750000
v -0.250000 -0.250000 1.750000
v 0.250000 -0.250000 1.750000
v 0.750000 -0.250000 1.750000
v 0.750000 0.250000 1.750000
v 1.250000 -0.250000 1.750000
v 1.250000 0.250000 1.750000
v 1.750000 -0.250000 1.750000
v 1.750000 0.250000 1.750000
v 0.250000 0.250000 2.250000
v -0.250000 0.250000 2.250000
v -0.250000 -0.250000 2.250000
v 0.250000 -0.250000 2.250000
v 0.750000 -0.250000 2.250000
v 0.750000 0.250000 2.250000
v 1.250000 -0.250000 2.250000
v 1.250000 0.250000 2.250000
v 1.750000 -0.250000 2.250000
v 1.750000 0.250000 2.250000
v 0.250000 0.250000 2.750000
v -0.250000 0.250000 2.750000
v -0.250000 -0.250000 2.750000
v 0.250000 -0.250000 2.750000
v 0.750000 -0.250000 2.750000
v 0.750000 0.250000 2.750000
v 1.250000 -0.250000 2.750000
v 1.250000 0.250000 2.750000
v 1.750000 -0.250000 2.750000
v 1.750000 0.250000 2.750000
v -0.750000 -0.250000 -0.250000
v -0.750000 0.250000 -0.250000
v -0.750000 0.250000 0.250000
v -0.750000 -0.250000 0.250000
v -0.750000 -0.250000 0.750000
v -0.750000 0.250000 0.750000
v -0.750000 0.250000 1.250000
v -0.750000 -0.250000 1.250000
v -0.750000 -0.250000 1.750000
v -0.750000 0.250000 1.750000
v -0.750000 -0.250000 2.250000
v -0.750000 0.250000 2.250000
v -0.750000 -0.250000 2.750000
v -0.750000 0.250000 2.750000
v -1.250000 -0.250000 -0.250000
v -1.250000 0.250000 -0.250000
v -1.250000 0.250000 0.250000
v -1.250000 -0.250000 0.250000
v -1.250000 -0.250000 0.750000
v -1.250000 0.250000 0.750000
v -1.250000 0.250000 1.250000
v -1.250000 -0.250000 1.250000
v -1.250000 -0.250000 1.750000
v -1.250000 0.250000 1.750000
v -1.250000 -0.250000 2.250000
v -1.250000 0.250000 2.250000
v -1.250000 -0.250000 2.750000
v -1.250000 0.250000 2.750000
v -1.750000 -0.250000 -0.250000
v -1.750000 0.250000 -0.250000
v -1.750000 0.250000 0.250000
v -1.750000 -0.250000 0.250000
v -1.750000 -0.250000 0.750000
v -1.750000 0.250000 0.750000
v -1.750000 0.250000 1.250000
v -1.750000 -0.250000 1.250000
v -1.750000 -0.250000 1.750000
v -1.750000 0.250000 1.750000
v -1.750000 -0.250000 2.250000
v -1.750000 0.250000 2.250000
v -1.750000 -0.250000 2.750000
v -1.750000 0.250000 2.750000
v -2.250000 -0.250000 -0.250000
v -2.250000 0.250000 -0.250000
v -2.250000 0.250000 0.250000
v -2.250000 -0.250000 0.250000
v -2.250000 -0.250000 0.750000
v -2.250000 0.250000 0.750000
v -2.250000 0.250000 1.250000
v -2.250000 -0.250000 1.250000
v -2.250000 -0.250000 1.750000
v -2.250000 0.250000 1.750000
v -2.250000 -0.250000 2.250000
v -2.250000 0.250000 2.250000
v -2.250000 -0.250000 2.750000
v -2.250000 0.250000 2.750000
vn -0.0000 -0.0000 -1.0000
vn -0.0000 1.0000 -0.0000
vn -0.0000 -1.0000 -0.0000
vn 1.0000 -0.0000 -0.0000
vn -0.0000 -0.0000 1.0000
vn -1.0000 -0.0000 -0.0000
vt 6.999999 -3.999999
vt 6.999999 -2.999999
vt 5.999999 -2.999999
vt 5.999999 -3.999999
vt -1.000000 -3.999999
vt -0.000000 -3.999999
vt -0.000000 -2.999999
vt -1.000000 -2.999999
vt 4.999999 -2.999999
vt 4.999999 -3.999999
vt -5.000000 5.999998
vt -6.000000 5.999998
vt -6.000000 4.999999
vt -5.000000 4.999999
vt 5.999999 -4.999999
vt 6.999999 -4.999999
vt 5.999999 -2.000000
vt 4.999999 -2.000000
vt 4.999999 -1.000000
vt 5.999999 -1.000000
vt 5.999999 -0.000000
vt 4.999999 -0.000000
vt -1.000000 -4.999999
vt -0.000000 -4.999999
vt -1.000000 -5.999998
vt -2.000000 -4.999999
vt -2.000000 -5.999998
vt -0.000000 -5.999998
vt -1.000000 -6.999998
vt -0.000000 -6.999998
vt 3.999999 -2.000000
vt 3.999999 -2.999999
vt 5.999999 -5.999998
vt 6.999999 -5.999998
vt -5.000000 6.999998
vt -6.000000 6.999998
vt -2.000000 -3.999999
vt 5.999999 -6.999998
vt 6.999999 -6.999998
vt 5.999999 1.000000
vt 4.999999 1.000000
vt -3.999999 -2.999999
vt -3.000000 -2.999999
vt -3.000000 -2.000000
vt -3.999999 -2.000000
vt -2.000000 -6.999998
vt -3.000000 -5.999998
vt -2.999999 -6.999998
vt -2.000000 -2.999999
vt -3.000000 -3.999999
vt -5.999999 3.999999
vt -5.000000 3.999999
vt 3.999999 1.000000
vt 3.999999 -0.000000
vt 3.000000 -3.000000
vt 2.000000 -3.000000
vt 2.000000 -3.999999
vt 3.000000 -3.999999
vt 3.999999 -1.000000
vt 3.000000 -2.000000
vt 3.000000 -1.000000
vt 2.000000 -1.000000
vt 2.000000 -2.000000
vt 3.000000 -0.000000
vt 2.000000 -0.000000
vt 1.000000 -3.000000
vt 1.000000 -3.999999
vt -3.999999 -5.999999
vt -3.999999 -6.999998
vt 3.000000 1.000000
vt -3.000000 -4.999999
vt -3.999999 -4.999999
vt -4.999999 -4.999999
vt -4.999999 -5.999999
vt 1.000000 -2.000000
vt 2.000000 1.000000
vt 1.000000 0.999999
vt 1.000000 -0.000001
vt 1.000000 -1.000000
vt -3.999999 -3.999999
vt -5.999999 3.000000
vt -5.000000 3.000000
vt -4.999999 -3.999999
vt -5.999999 -3.999999
vt -5.999999 -4.999999
vt -5.999999 -5.999999
vt 0.000000 -2.000000
vt 0.000000 -3.000000
vt 0.000000 0.999999
vt 0.000000 -0.000001
vt -5.999999 2.000000
vt -5.000000 2.000000
vt -4.999999 -2.999999
vt -4.999999 -6.999998
vt -0.000001 -1.999999
vt -1.000000 -1.999999
vt 8.000000 -2.999999
vt 7.999999 -1.999999
vt 6.999999 -1.999999
vt 6.999999 -2.999999
vt 7.999999 -1.000000
vt 6.999999 -1.000000
vt 7.999999 0.000000
vt 6.999999 0.000000
vt 7.999999 1.000000
vt 6.999999 1.000000
vt -5.999999 1.000000
vt -5.000000 1.000000
vt -5.999999 -3.000000
vt -5.999999 -6.999998
vt 6.999999 -3.999999
vt 8.000000 -3.999999
vt 0.000000 -1.000000
vt -2.000000 -1.999999
vt -1.000000 -1.000000
vt -2.000000 -1.000000
vt 1.000000 -4.999999
vt 2.000000 -4.999999
vt 4.000000 -3.999999
vt 4.000000 -4.999999
vt 4.999999 -4.999999
vt -3.000000 -1.000000
vt -4.000000 -1.000000
vt -5.999999 -2.000000
vt -4.999999 -2.000000
vt -4.999999 -1.000000
vt -5.999999 -1.000000
vt 6.999999 -1.999999
vt 0.000000 -3.999999
vt -4.000000 -0.000000
vt -5.000000 -0.000000
vt 6.999999 -1.000000
vt 6.999999 0.000000
vt -1.000000 0.000000
vt -2.000000 0.000000
vt 1.000000 -5.999999
vt 2.000000 -5.999999
vt 4.000000 -5.999999
vt 4.999999 -5.999999
vt -3.000000 -0.000000
vt -0.000001 -0.999999
vt 6.999999 -4.999999
vt 8.000000 -4.999999
vt 3.000000 -4.999999
vt 0.000000 -4.999999
vt 8.000000 -5.999998
vt 7.000000 -5.999998
vt 7.000000 -6.999998
vt 8.000000 -6.999998
vt -0.000001 0.000000
vt -0.000001 1.000000
vt -1.000001 1.000000
vt -4.000000 1.000000
vt 6.999999 1.000000
vt -2.000000 1.000000
vt 1.000000 -6.999998
vt 2.000000 -6.999998
vt 3.000000 -5.999999
vt 0.000000 -5.999999
vt -5.999999 -0.000000
vt -4.999999 2.000000
vt -4.999999 1.000000
vt -3.999999 1.000000
vt -3.999999 2.000000
vt -4.999999 3.000000
vt -3.999999 3.000000
vt -3.999999 3.999999
vt -4.999999 3.999999
vt -3.999999 4.999999
vt -4.999999 4.999999
vt -3.999999 5.999998
vt -4.999999 5.999998
vt -4.000000 6.999998
vt -4.999999 6.999998
vt 3.000000 -6.999998
vt 0.000001 -6.999998
vt 4.000000 -6.999998
vt 4.999999 -6.999998
vt -3.000000 1.000000
s 0
usemtl Material.001
f 1/1/1 5/2/1 7/3/1 3/4/1
f 4/5/2 3/6/2 7/7/2 8/8/2
f 5/3/3 6/9/3 74/10/3 71/4/3
f 20/11/4 19/12/4 30/13/4 29/14/4
f 1/1/1 3/4/1 10/15/1 9/16/1
f 6/9/3 5/3/3 1/17/3 2/18/3
f 12/19/3 9/20/3 13/21/3 16/22/3
f 2/18/3 1/17/3 9/20/3 12/19/3
f 3/6/2 4/5/2 11/23/2 10/24/2
f 15/25/2 11/23/2 26/26/2 28/27/2
f 14/28/2 15/25/2 19/29/2 18/30/2
f 10/24/2 11/23/2 15/25/2 14/28/2
f 6/9/3 2/18/3 24/31/3 23/32/3
f 9/16/1 10/15/1 14/33/1 13/34/1
f 20/11/4 17/35/4 18/36/4 19/12/4
f 11/23/2 4/5/2 21/37/2 26/26/2
f 13/34/1 14/33/1 18/38/1 17/39/1
f 16/22/3 13/21/3 17/40/3 20/41/3
f 42/42/2 32/43/2 77/44/2 80/45/2
f 30/46/2 28/27/2 38/47/2 40/48/2
f 21/37/2 22/49/2 32/43/2 31/50/2
f 29/14/4 30/13/4 40/51/4 39/52/4
f 16/22/3 20/41/3 29/53/3 27/54/3
f 33/55/3 43/56/3 79/57/3 78/58/3
f 4/5/2 8/8/2 22/49/2 21/37/2
f 2/18/3 12/19/3 25/59/3 24/31/3
f 12/19/3 16/22/3 27/54/3 25/59/3
f 19/29/2 15/25/2 28/27/2 30/46/2
f 34/60/3 35/61/3 45/62/3 44/63/3
f 35/61/3 37/64/3 47/65/3 45/62/3
f 43/56/3 53/66/3 81/67/3 79/57/3
f 40/48/2 38/47/2 48/68/2 50/69/2
f 25/59/3 27/54/3 37/64/3 35/61/3
f 24/31/3 25/59/3 35/61/3 34/60/3
f 27/54/3 29/53/3 39/70/3 37/64/3
f 23/32/3 24/31/3 34/60/3 33/55/3
f 28/27/2 26/26/2 36/71/2 38/47/2
f 26/26/2 21/37/2 31/50/2 36/71/2
f 48/68/2 46/72/2 56/73/2 58/74/2
f 43/56/3 44/63/3 54/75/3 53/66/3
f 47/65/3 49/76/3 59/77/3 57/78/3
f 44/63/3 45/62/3 55/79/3 54/75/3
f 37/64/3 39/70/3 49/76/3 47/65/3
f 33/55/3 34/60/3 44/63/3 43/56/3
f 38/47/2 36/71/2 46/72/2 48/68/2
f 36/71/2 31/50/2 41/80/2 46/72/2
f 39/52/4 40/51/4 50/81/4 49/82/4
f 31/50/2 32/43/2 42/42/2 41/80/2
f 56/73/2 51/83/2 61/84/2 66/85/2
f 58/74/2 56/73/2 66/85/2 68/86/2
f 53/66/3 54/75/3 64/87/3 63/88/3
f 57/78/3 59/77/3 69/89/3 67/90/3
f 46/72/2 41/80/2 51/83/2 56/73/2
f 49/82/4 50/81/4 60/91/4 59/92/4
f 41/80/2 42/42/2 52/93/2 51/83/2
f 50/69/2 48/68/2 58/74/2 60/94/2
f 8/8/2 7/7/2 72/95/2 73/96/2
f 45/62/3 47/65/3 57/78/3 55/79/3
f 63/97/5 64/98/5 61/99/5 62/100/5
f 61/99/5 64/98/5 65/101/5 66/102/5
f 66/102/5 65/101/5 67/103/5 68/104/5
f 68/104/5 67/103/5 69/105/5 70/106/5
f 59/92/4 60/91/4 70/107/4 69/108/4
f 51/83/2 52/93/2 62/109/2 61/84/2
f 60/94/2 58/74/2 68/86/2 70/110/2
f 63/97/5 62/100/5 84/111/5 83/112/5
f 55/79/3 57/78/3 67/90/3 65/113/3
f 54/75/3 55/79/3 65/113/3 64/87/3
f 76/114/2 73/96/2 87/115/2 90/116/2
f 79/57/3 81/67/3 95/117/3 93/118/3
f 74/10/3 75/119/3 89/120/3 88/121/3
f 77/44/2 76/114/2 90/116/2 91/122/2
f 80/45/2 77/44/2 91/122/2 94/123/2
f 84/124/2 82/125/2 96/126/2 98/127/2
f 62/109/2 52/93/2 82/125/2 84/124/2
f 7/3/1 5/2/1 71/128/1 72/17/1
f 32/43/2 22/49/2 76/114/2 77/44/2
f 22/49/2 8/8/2 73/96/2 76/114/2
f 53/66/3 63/88/3 83/129/3 81/67/3
f 52/93/2 42/42/2 80/45/2 82/125/2
f 23/32/3 33/55/3 78/58/3 75/119/3
f 6/9/3 23/32/3 75/119/3 74/10/3
f 96/126/2 94/123/2 108/130/2 110/131/2
f 86/20/1 85/132/1 99/133/1 100/21/1
f 90/116/2 87/115/2 101/134/2 104/135/2
f 93/118/3 95/117/3 109/136/3 107/137/3
f 88/121/3 89/120/3 103/138/3 102/139/3
f 91/122/2 90/116/2 104/135/2 105/140/2
f 72/17/1 71/128/1 85/132/1 86/20/1
f 82/125/2 80/45/2 94/123/2 96/126/2
f 73/96/2 72/95/2 86/141/2 87/115/2
f 83/112/5 84/111/5 98/142/5 97/143/5
f 78/58/3 79/57/3 93/118/3 92/144/3
f 81/67/3 83/129/3 97/145/3 95/117/3
f 75/119/3 78/58/3 92/144/3 89/120/3
f 71/4/3 74/10/3 88/121/3 85/15/3
f 111/146/5 112/147/5 126/148/5 125/149/5
f 101/134/2 100/150/2 114/151/2 115/152/2
f 110/131/2 108/130/2 122/153/2 124/108/2
f 100/21/1 99/133/1 113/154/1 114/40/1
f 104/135/2 101/134/2 115/152/2 118/155/2
f 107/137/3 109/136/3 123/156/3 121/157/3
f 87/115/2 86/141/2 100/150/2 101/134/2
f 97/143/5 98/142/5 112/147/5 111/146/5
f 92/144/3 93/118/3 107/137/3 106/158/3
f 95/117/3 97/145/3 111/159/3 109/136/3
f 89/120/3 92/144/3 106/158/3 103/138/3
f 85/15/3 88/121/3 102/139/3 99/33/3
f 98/127/2 96/126/2 110/131/2 112/160/2
f 94/123/2 91/122/2 105/140/2 108/130/2
f 115/161/6 114/162/6 113/163/6 116/164/6
f 118/165/6 117/166/6 120/167/6 119/168/6
f 115/161/6 116/164/6 117/166/6 118/165/6
f 119/168/6 120/167/6 121/169/6 122/170/6
f 122/170/6 121/169/6 123/171/6 124/172/6
f 124/172/6 123/171/6 125/173/6 126/174/6
f 106/158/3 107/137/3 121/157/3 120/175/3
f 109/136/3 111/159/3 125/176/3 123/156/3
f 103/138/3 106/158/3 120/175/3 117/177/3
f 99/33/3 102/139/3 116/178/3 113/38/3
f 112/160/2 110/131/2 124/108/2 126/107/2
f 108/130/2 105/140/2 119/179/2 122/153/2
f 105/140/2 104/135/2 118/155/2 119/179/2
f 102/139/3 103/138/3 117/177/3 116/178/3
