# Blender 5.0.0
# www.blender.org
mtllib Back_8x6.mtl
o Cube.012
v 0.250000 -0.250000 -0.250000
v 0.250000 -0.250000 0.250000
v 0.250000 0.250000 -0.250000
v 0.250000 0.250000 0.250000
v -0.250000 -0.250000 -0.250000
v -0.250000 -0.250000 0.250000
v -0.250000 0.250000 -0.250000
v -0.250000 0.250000 0.250000
v 0.750000 -0.250000 -0.250000
v 0.750000 0.250000 -0.250000
v 0.750000 0.250000 0.250000
v 0.750000 -0.250000 0.250000
v 1.250000 -0.250000 -0.250000
v 1.250000 0.250000 -0.250000
v 1.250000 0.250000 0.250000
v 1.250000 -0.250000 0.250000
v 1.750000 -0.250000 -0.250000
v 1.750000 0.250000 -0.250000
v 1.750000 0.250000 0.250000
v 1.750000 -0.250000 0.250000
v 0.250000 0.250000 0.750000
v -0.250000 0.250000 0.750000
v -0.250000 -0.250000 0.750000
v 0.250000 -0.250000 0.750000
v 0.750000 -0.250000 0.750000
v 0.750000 0.250000 0.750000
v 1.250000 -0.250000 0.750000
v 1.250000 0.250000 0.750000
v 1.750000 -0.250000 0.750000
v 1.750000 0.250000 0.750000
v 0.250000 0.250000 1.250000
v -0.250000 0.250000 1.250000
v -0.250000 -0.250000 1.250000
v 0.250000 -0.250000 1.250000
v 0.750000 -0.250000 1.250000
v 0.750000 0.250000 1.250000
v 1.250000 -0.250000 1.250000
v 1.250000 0.250000 1.250000
v 1.750000 -0.250000 1.250000
v 1.750000 0.250000 1.250000
v 0.250000 0.250000 1.750000
v -0.250000 0.250000 1.750000
v -0.250000 -0.250000 1.750000
v 0.250000 -0.250000 1.750000
v 0.750000 -0.250000 1.750000
v 0.750000 0.250000 1.750000
v 1.250000 -0.250000 1.750000
v 1.250000 0.250000 1.750000
v 1.750000 -0.250000 1.750000
v 1.750000 0.250000 1.750000
v 0.250000 0.250000 2.250000
v -0.250000 0.250000 2.250000
v -0.250000 -0.250000 2.250000
v 0.250000 -0.250000 2.250000
v 0.750000 -0.250000 2.250000
v 0.750000 0.250000 2.250000
v 1.250000 -0.250000 2.250000
v 1.250000 0.250000 2.250000
v 1.750000 -0.250000 2.250000
v 1.750000 0.250000 2.250000
v 0.250000 0.250000 2.750000
v -0.250000 0.250000 2.750000
v -0.250000 -0.250000 2.750000
v 0.250000 -0.250000 2.750000
v 0.750000 -0.250000 2.750000
v 0.750000 0.250000 2.750000
v 1.250000 -0.250000 2.750000
v 1.250000 0.250000 2.750000
v 1.750000 -0.250000 2.750000
v 1.750000 0.250000 2.750000
v -0.750000 -0.250000 -0.250000
v -0.750000 0.250000 -0.250000
v -0.750000 0.250000 0.250000
v -0.750000 -0.250000 0.250000
v -0.750000 -0.250000 0.750000
v -0.750000 0.250000 0.750000
v -0.750000 0.250000 1.250000
v -0.750000 -0.250000 1.250000
v -0.750000 -0.250000 1.750000
v -0.750000 0.250000 1.750000
v -0.750000 -0.250000 2.250000
v -0.750000 0.250000 2.250000
v -0.750000 -0.250000 2.750000
v -0.750000 0.250000 2.750000
v -1.250000 -0.250000 -0.250000
v -1.250000 0.250000 -0.250000
v -1.250000 0.250000 0.250000
v -1.250000 -0.250000 0.250000
v -1.250000 -0.250000 0.750000
v -1.250000 0.250000 0.750000
v -1.250000 0.250000 1.250000
v -1.250000 -0.250000 1.250000
v -1.250000 -0.250000 1.750000
v -1.250000 0.250000 1.750000
v -1.250000 -0.250000 2.250000
v -1.250000 0.250000 2.250000
v -1.250000 -0.250000 2.750000
v -1.250000 0.250000 2.750000
v -1.750000 -0.250000 -0.250000
v -1.750000 0.250000 -0.250000
v -1.750000 0.250000 0.250000
v -1.750000 -0.250000 0.250000
v -1.750000 -0.250000 0.750000
v -1.750000 0.250000 0.750000
v -1.750000 0.250000 1.250000
v -1.750000 -0.250000 1.250000
v -1.750000 -0.250000 1.750000
v -1.750000 0.250000 1.750000
v -1.750000 -0.250000 2.250000
v -1.750000 0.250000 2.250000
v -1.750000 -0.250000 2.750000
v -1.750000 0.250000 2.750000
v -2.250000 -0.250000 -0.250000
v -2.250000 0.250000 -0.250000
v -2.250000 0.250000 0.250000
v -2.250000 -0.250000 0.250000
v -2.250000 -0.250000 0.750000
v -2.250000 0.250000 0.750000
v -2.250000 0.250000 1.250000
v -2.250000 -0.250000 1.250000
v -2.250000 -0.250000 1.750000
v -2.250000 0.250000 1.750000
v -2.250000 -0.250000 2.250000
v -2.250000 0.250000 2.250000
v -2.250000 -0.250000 2.750000
v -2.250000 0.250000 2.750000
vn -0.0000 -0.7071 -0.7071
vn -0.0000 0.7071 -0.7071
vn -0.0000 1.0000 -0.0000
vn -0.0000 -1.0000 -0.0000
vn 0.7071 -0.7071 -0.0000
vn 0.7071 0.7071 -0.0000
vn 0.5774 0.5774 -0.5774
vn 0.5774 -0.5774 -0.5774
vn -0.0000 0.7071 0.7071
vn -0.0000 -0.7071 0.7071
vn 0.5774 -0.5774 0.5774
vn 0.5774 0.5774 0.5774
vn -0.5774 0.5774 0.5774
vn -0.5774 -0.5774 0.5774
vn -0.5774 0.5774 -0.5774
vn -0.7071 0.7071 -0.0000
vn -0.5774 -0.5774 -0.5774
vn -0.7071 -0.7071 -0.0000
vt 6.999999 -3.999999
vt 6.999999 -2.999999
vt 5.999999 -2.999999
vt 5.999999 -3.999999
vt -1.000000 -3.999999
vt -0.000000 -3.999999
vt -0.000000 -2.999999
vt -1.000000 -2.999999
vt 4.999999 -2.999999
vt 4.999999 -3.999999
vt -5.000000 5.999998
vt -6.000000 5.999998
vt -6.000000 4.999999
vt -5.000000 4.999999
vt 5.999999 -4.999999
vt 6.999999 -4.999999
vt 5.999999 -2.000000
vt 4.999999 -2.000000
vt 4.999999 -1.000000
vt 5.999999 -1.000000
vt 5.999999 -0.000000
vt 4.999999 -0.000000
vt -1.000000 -4.999999
vt -0.000000 -4.999999
vt -1.000000 -5.999998
vt -2.000000 -4.999999
vt -2.000000 -5.999998
vt -0.000000 -5.999998
vt -1.000000 -6.999998
vt -0.000000 -6.999998
vt 3.999999 -2.000000
vt 3.999999 -2.999999
vt 5.999999 -5.999998
vt 6.999999 -5.999998
vt -5.000000 6.999998
vt -6.000000 6.999998
vt -2.000000 -3.999999
vt 5.999999 -6.999998
vt 6.999999 -6.999998
vt 5.999999 1.000000
vt 4.999999 1.000000
vt -3.999999 -2.999999
vt -3.000000 -2.999999
vt -3.000000 -2.000000
vt -3.999999 -2.000000
vt -2.000000 -6.999998
vt -3.000000 -5.999998
vt -2.999999 -6.999998
vt -2.000000 -2.999999
vt -3.000000 -3.999999
vt -5.999999 3.999999
vt -5.000000 3.999999
vt 3.999999 1.000000
vt 3.999999 -0.000000
vt 3.000000 -3.000000
vt 2.000000 -3.000000
vt 2.000000 -3.999999
vt 3.000000 -3.999999
vt 3.999999 -1.000000
vt 3.000000 -2.000000
vt 3.000000 -1.000000
vt 2.000000 -1.000000
vt 2.000000 -2.000000
vt 3.000000 -0.000000
vt 2.000000 -0.000000
vt 1.000000 -3.000000
vt 1.000000 -3.999999
vt -3.999999 -5.999999
vt -3.999999 -6.999998
vt 3.000000 1.000000
vt -3.000000 -4.999999
vt -3.999999 -4.999999
vt -4.999999 -4.999999
vt -4.999999 -5.999999
vt 1.000000 -2.000000
vt 2.000000 1.000000
vt 1.000000 0.999999
vt 1.000000 -0.000001
vt 1.000000 -1.000000
vt -3.999999 -3.999999
vt -5.999999 3.000000
vt -5.000000 3.000000
vt -4.999999 -3.999999
vt -5.999999 -3.999999
vt -5.999999 -4.999999
vt -5.999999 -5.999999
vt 0.000000 -2.000000
vt 0.000000 -3.000000
vt 0.000000 0.999999
vt 0.000000 -0.000001
vt -5.999999 2.000000
vt -5.000000 2.000000
vt -4.999999 -2.999999
vt -4.999999 -6.999998
vt -0.000001 -1.999999
vt -1.000000 -1.999999
vt 8.000000 -2.999999
vt 7.999999 -1.999999
vt 6.999999 -1.999999
vt 6.999999 -2.999999
vt 7.999999 -1.000000
vt 6.999999 -1.000000
vt 7.999999 0.000000
vt 6.999999 0.000000
vt 7.999999 1.000000
vt 6.999999 1.000000
vt -5.999999 1.000000
vt -5.000000 1.000000
vt -5.999999 -3.000000
vt -5.999999 -6.999998
vt 6.999999 -3.999999
vt 8.000000 -3.999999
vt 0.000000 -1.000000
vt -2.000000 -1.999999
vt -1.000000 -1.000000
vt -2.000000 -1.000000
vt 1.000000 -4.999999
vt 2.000000 -4.999999
vt 4.000000 -3.999999
vt 4.000000 -4.999999
vt 4.999999 -4.999999
vt -3.000000 -1.000000
vt -4.000000 -1.000000
vt -5.999999 -2.000000
vt -4.999999 -2.000000
vt -4.999999 -1.000000
vt -5.999999 -1.000000
vt 6.999999 -1.999999
vt 0.000000 -3.999999
vt -4.000000 -0.000000
vt -5.000000 -0.000000
vt 6.999999 -1.000000
vt 6.999999 0.000000
vt -1.000000 0.000000
vt -2.000000 0.000000
vt 1.000000 -5.999999
vt 2.000000 -5.999999
vt 4.000000 -5.999999
vt 4.999999 -5.999999
vt -3.000000 -0.000000
vt -0.000001 -0.999999
vt 6.999999 -4.999999
vt 8.000000 -4.999999
vt 3.000000 -4.999999
vt 0.000000 -4.999999
vt 8.000000 -5.999998
vt 7.000000 -5.999998
vt 7.000000 -6.999998
vt 8.000000 -6.999998
vt -0.000001 0.000000
vt -0.000001 1.000000
vt -1.000001 1.000000
vt -4.000000 1.000000
vt 6.999999 1.000000
vt -2.000000 1.000000
vt 1.000000 -6.999998
vt 2.000000 -6.999998
vt 3.000000 -5.999999
vt 0.000000 -5.999999
vt -5.999999 -0.000000
vt -4.999999 2.000000
vt -4.999999 1.000000
vt -3.999999 1.000000
vt -3.999999 2.000000
vt -4.999999 3.000000
vt -3.999999 3.000000
vt -3.999999 3.999999
vt -4.999999 3.999999
vt -3.999999 4.999999
vt -4.999999 4.999999
vt -3.999999 5.999998
vt -4.999999 5.999998
vt -4.000000 6.999998
vt -4.999999 6.999998
vt 3.000000 -6.999998
vt 0.000001 -6.999998
vt 4.000000 -6.999998
vt 4.999999 -6.999998
vt -3.000000 1.000000
s 1
usemtl Material.001
f 1/1/1 5/2/1 7/3/2 3/4/2
f 4/5/3 3/6/2 7/7/2 8/8/3
f 5/3/1 6/9/4 74/10/4 71/4/1
f 20/11/5 19/12/6 30/13/6 29/14/5
f 1/1/1 3/4/2 10/15/2 9/16/1
f 6/9/4 5/3/1 1/17/1 2/18/4
f 12/19/4 9/20/1 13/21/1 16/22/4
f 2/18/4 1/17/1 9/20/1 12/19/4
f 3/6/2 4/5/3 11/23/3 10/24/2
f 15/25/3 11/23/3 26/26/3 28/27/3
f 14/28/2 15/25/3 19/29/6 18/30/7
f 10/24/2 11/23/3 15/25/3 14/28/2
f 6/9/4 2/18/4 24/31/4 23/32/4
f 9/16/1 10/15/2 14/33/2 13/34/1
f 20/11/5 17/35/8 18/36/7 19/12/6
f 11/23/3 4/5/3 21/37/3 26/26/3
f 13/34/1 14/33/2 18/38/7 17/39/8
f 16/22/4 13/21/1 17/40/8 20/41/5
f 42/42/3 32/43/3 77/44/3 80/45/3
f 30/46/6 28/27/3 38/47/3 40/48/6
f 21/37/3 22/49/3 32/43/3 31/50/3
f 29/14/5 30/13/6 40/51/6 39/52/5
f 16/22/4 20/41/5 29/53/5 27/54/4
f 33/55/4 43/56/4 79/57/4 78/58/4
f 4/5/3 8/8/3 22/49/3 21/37/3
f 2/18/4 12/19/4 25/59/4 24/31/4
f 12/19/4 16/22/4 27/54/4 25/59/4
f 19/29/6 15/25/3 28/27/3 30/46/6
f 34/60/4 35/61/4 45/62/4 44/63/4
f 35/61/4 37/64/4 47/65/4 45/62/4
f 43/56/4 53/66/4 81/67/4 79/57/4
f 40/48/6 38/47/3 48/68/3 50/69/6
f 25/59/4 27/54/4 37/64/4 35/61/4
f 24/31/4 25/59/4 35/61/4 34/60/4
f 27/54/4 29/53/5 39/70/5 37/64/4
f 23/32/4 24/31/4 34/60/4 33/55/4
f 28/27/3 26/26/3 36/71/3 38/47/3
f 26/26/3 21/37/3 31/50/3 36/71/3
f 48/68/3 46/72/3 56/73/3 58/74/3
f 43/56/4 44/63/4 54/75/4 53/66/4
f 47/65/4 49/76/5 59/77/5 57/78/4
f 44/63/4 45/62/4 55/79/4 54/75/4
f 37/64/4 39/70/5 49/76/5 47/65/4
f 33/55/4 34/60/4 44/63/4 43/56/4
f 38/47/3 36/71/3 46/72/3 48/68/3
f 36/71/3 31/50/3 41/80/3 46/72/3
f 39/52/5 40/51/6 50/81/6 49/82/5
f 31/50/3 32/43/3 42/42/3 41/80/3
f 56/73/3 51/83/3 61/84/9 66/85/9
f 58/74/3 56/73/3 66/85/9 68/86/9
f 53/66/4 54/75/4 64/87/10 63/88/10
f 57/78/4 59/77/5 69/89/11 67/90/10
f 46/72/3 41/80/3 51/83/3 56/73/3
f 49/82/5 50/81/6 60/91/6 59/92/5
f 41/80/3 42/42/3 52/93/3 51/83/3
f 50/69/6 48/68/3 58/74/3 60/94/6
f 8/8/3 7/7/2 72/95/2 73/96/3
f 45/62/4 47/65/4 57/78/4 55/79/4
f 63/97/10 64/98/10 61/99/9 62/100/9
f 61/99/9 64/98/10 65/101/10 66/102/9
f 66/102/9 65/101/10 67/103/10 68/104/9
f 68/104/9 67/103/10 69/105/11 70/106/12
f 59/92/5 60/91/6 70/107/12 69/108/11
f 51/83/3 52/93/3 62/109/9 61/84/9
f 60/94/6 58/74/3 68/86/9 70/110/12
f 63/97/10 62/100/9 84/111/9 83/112/10
f 55/79/4 57/78/4 67/90/10 65/113/10
f 54/75/4 55/79/4 65/113/10 64/87/10
f 76/114/3 73/96/3 87/115/3 90/116/3
f 79/57/4 81/67/4 95/117/4 93/118/4
f 74/10/4 75/119/4 89/120/4 88/121/4
f 77/44/3 76/114/3 90/116/3 91/122/3
f 80/45/3 77/44/3 91/122/3 94/123/3
f 84/124/9 82/125/3 96/126/3 98/127/9
f 62/109/9 52/93/3 82/125/3 84/124/9
f 7/3/2 5/2/1 71/128/1 72/17/2
f 32/43/3 22/49/3 76/114/3 77/44/3
f 22/49/3 8/8/3 73/96/3 76/114/3
f 53/66/4 63/88/10 83/129/10 81/67/4
f 52/93/3 42/42/3 80/45/3 82/125/3
f 23/32/4 33/55/4 78/58/4 75/119/4
f 6/9/4 23/32/4 75/119/4 74/10/4
f 96/126/3 94/123/3 108/130/3 110/131/3
f 86/20/2 85/132/1 99/133/1 100/21/2
f 90/116/3 87/115/3 101/134/3 104/135/3
f 93/118/4 95/117/4 109/136/4 107/137/4
f 88/121/4 89/120/4 103/138/4 102/139/4
f 91/122/3 90/116/3 104/135/3 105/140/3
f 72/17/2 71/128/1 85/132/1 86/20/2
f 82/125/3 80/45/3 94/123/3 96/126/3
f 73/96/3 72/95/2 86/141/2 87/115/3
f 83/112/10 84/111/9 98/142/9 97/143/10
f 78/58/4 79/57/4 93/118/4 92/144/4
f 81/67/4 83/129/10 97/145/10 95/117/4
f 75/119/4 78/58/4 92/144/4 89/120/4
f 71/4/1 74/10/4 88/121/4 85/15/1
f 111/146/10 112/147/9 126/148/13 125/149/14
f 101/134/3 100/150/2 114/151/15 115/152/16
f 110/131/3 108/130/3 122/153/16 124/108/16
f 100/21/2 99/133/1 113/154/17 114/40/15
f 104/135/3 101/134/3 115/152/16 118/155/16
f 107/137/4 109/136/4 123/156/18 121/157/18
f 87/115/3 86/141/2 100/150/2 101/134/3
f 97/143/10 98/142/9 112/147/9 111/146/10
f 92/144/4 93/118/4 107/137/4 106/158/4
f 95/117/4 97/145/10 111/159/10 109/136/4
f 89/120/4 92/144/4 106/158/4 103/138/4
f 85/15/1 88/121/4 102/139/4 99/33/1
f 98/127/9 96/126/3 110/131/3 112/160/9
f 94/123/3 91/122/3 105/140/3 108/130/3
f 115/161/16 114/162/15 113/163/17 116/164/18
f 118/165/16 117/166/18 120/167/18 119/168/16
f 115/161/16 116/164/18 117/166/18 118/165/16
f 119/168/16 120/167/18 121/169/18 122/170/16
f 122/170/16 121/169/18 123/171/18 124/172/16
f 124/172/16 123/171/18 125/173/14 126/174/13
f 106/158/4 107/137/4 121/157/18 120/175/18
f 109/136/4 111/159/10 125/176/14 123/156/18
f 103/138/4 106/158/4 120/175/18 117/177/18
f 99/33/1 102/139/4 116/178/18 113/38/17
f 112/160/9 110/131/3 124/108/16 126/107/13
f 108/130/3 105/140/3 119/179/16 122/153/16
f 105/140/3 104/135/3 118/155/16 119/179/16
f 102/139/4 103/138/4 117/177/18 116/178/18
