# Blender 5.0.0
# www.blender.org
mtllib Back_Wall_1.mtl
o b1
v -0.611111 -0.888889 1.749999
v -0.611111 1.611111 1.749999
v -0.611111 -0.888889 -1.750001
v -0.611111 1.611111 -1.750001
v -0.111111 -0.888889 1.749999
v -0.111111 1.611111 1.749999
v -0.111111 -0.888889 -1.750001
v -0.111111 1.611111 -1.750001
v -0.611111 -0.388889 1.749999
v -0.611111 -0.388889 -1.750001
v -0.111111 -0.388889 -1.750001
v -0.111111 -0.388889 1.749999
v 0.888889 -0.888889 1.749999
v 0.888889 -0.888889 -1.750001
v 0.888889 -0.388889 -1.750001
v 0.888889 -0.388889 1.749999
v -0.611111 -0.888889 0.749999
v -0.611111 1.611111 0.749999
v -0.111111 -0.888889 0.749999
v -0.111111 1.611111 0.749999
v -0.111111 -0.388889 0.749999
v -0.611111 -0.388889 0.749999
v 0.888889 -0.888889 0.749999
v 0.888889 -0.388889 0.749999
v -0.611111 1.611111 -0.750001
v -0.111111 -0.888889 -0.750001
v -0.611111 -0.388889 -0.750001
v 0.888889 -0.888889 -0.750001
v -0.611111 -0.888889 -0.750001
v -0.111111 1.611111 -0.750001
v -0.111111 -0.388889 -0.750001
v 0.888889 -0.388889 -0.750001
v 0.388889 1.611111 1.749999
v 0.388889 1.611111 0.749999
v 0.388889 0.611111 -0.750001
v 0.388889 0.611111 0.749999
v -0.611111 0.611111 1.749999
v -0.611111 0.611111 -1.750001
v -0.111111 0.611111 -1.750001
v -0.111111 0.611111 1.749999
v -0.111111 0.611111 0.749999
v -0.611111 0.611111 0.749999
v -0.111111 0.611111 -0.750001
v -0.611111 0.611111 -0.750001
v 0.388889 1.111111 -0.750001
v 0.388889 -0.388889 -0.750001
v -0.611111 1.111111 1.749999
v -0.611111 1.111111 -1.750001
v -0.111111 1.111111 -1.750001
v -0.111111 1.111111 1.749999
v -0.111111 1.111111 0.749999
v -0.611111 1.111111 0.749999
v -0.111111 1.111111 -0.750001
v -0.611111 1.111111 -0.750001
v 0.388889 1.111111 0.749999
v 0.388889 -0.388889 0.749999
v 0.388889 1.611111 -0.750001
v 0.388889 1.611111 -1.750001
v 0.388889 1.111111 -1.750001
v 0.388889 1.111111 1.749999
v -0.611111 1.611111 -1.250001
v -0.111111 -0.888889 -1.250001
v -0.611111 -0.388889 -1.250001
v 0.888889 -0.888889 -1.250001
v -0.611111 -0.888889 -1.250001
v -0.111111 1.611111 -1.250001
v -0.111111 -0.388889 -1.250001
v 0.888889 -0.388889 -1.250001
v -0.111111 0.611111 -1.250001
v -0.611111 0.611111 -1.250001
v -0.111111 1.111111 -1.250001
v -0.611111 1.111111 -1.250001
v 0.388889 1.611111 -1.250001
v 0.388889 1.111111 -1.250001
v -1.611111 1.611111 -1.250001
v -1.611111 1.611111 -1.750001
v -1.611111 -0.388889 -1.750001
v -1.611111 -0.888889 -1.750001
v -1.611111 0.611111 -1.750001
v -1.611111 -0.388889 -1.250001
v -1.611111 1.111111 -1.750001
v -1.611111 0.611111 -1.250001
v -1.611111 1.111111 -1.250001
v -1.611111 -0.888889 -1.250001
v -2.111111 1.611111 -1.250001
v -2.111111 1.611111 -1.750001
v -2.111111 -0.388889 -1.750001
v -2.111111 -0.888889 -1.750001
v -2.111111 0.611111 -1.750001
v -2.111111 -0.388889 -1.250001
v -2.111111 1.111111 -1.750001
v -2.111111 0.611111 -1.250001
v -2.111111 1.111111 -1.250001
v -2.111111 -0.888889 -1.250001
v -0.611111 -0.888889 1.249999
v -0.111111 1.611111 1.249999
v -0.111111 -0.388889 1.249999
v 0.888889 -0.388889 1.249999
v -0.611111 1.611111 1.249999
v -0.111111 -0.888889 1.249999
v -0.611111 -0.388889 1.249999
v 0.888889 -0.888889 1.249999
v 0.388889 1.611111 1.249999
v -0.611111 0.611111 1.249999
v -0.111111 0.611111 1.249999
v -0.611111 1.111111 1.249999
v -0.111111 1.111111 1.249999
v 0.388889 1.111111 1.249999
v -1.611111 -0.888889 1.249999
v -1.611111 -0.888889 1.749999
v -1.611111 1.111111 1.749999
v -1.611111 1.611111 1.749999
v -1.611111 -0.388889 1.749999
v -1.611111 0.611111 1.749999
v -1.611111 1.611111 1.249999
v -1.611111 -0.388889 1.249999
v -1.611111 0.611111 1.249999
v -1.611111 1.111111 1.249999
v -2.111111 -0.888889 1.249999
v -2.111111 -0.888889 1.749999
v -2.111111 1.111111 1.749999
v -2.111111 1.611111 1.749999
v -2.111111 -0.388889 1.749999
v -2.111111 0.611111 1.749999
v -2.111111 1.611111 1.249999
v -2.111111 -0.388889 1.249999
v -2.111111 0.611111 1.249999
v -2.111111 1.111111 1.249999
v -0.111111 -1.388889 -1.750001
v -0.611111 -1.388889 -1.750001
v -0.111111 -1.388889 -1.250001
v 0.888889 -1.388889 -1.250001
v 0.888889 -1.388889 -1.750001
v -0.611111 -1.388889 -1.250001
v -1.611111 -1.388889 -1.750001
v -1.611111 -1.388889 -1.250001
v -2.111111 -1.388889 -1.750001
v -2.111111 -1.388889 -1.250001
v -0.111111 -0.888889 -2.750001
v -0.611111 -0.888889 -2.750001
v 0.888889 -0.888889 -2.750001
v -1.611111 -0.888889 -2.750001
v -2.111111 -0.888889 -2.750001
v -0.111111 -1.388889 -2.750001
v -0.611111 -1.388889 -2.750001
v 0.888889 -1.388889 -2.750001
v -1.611111 -1.388889 -2.750001
v -2.111111 -1.388889 -2.750001
v -0.111111 -0.888889 -3.750001
v -0.611111 -0.888889 -3.750001
v 0.888889 -0.888889 -3.750001
v -1.611111 -0.888889 -3.750001
v -2.111111 -0.888889 -3.750001
v -0.111111 -1.388889 -3.750001
v -0.611111 -1.388889 -3.750001
v 0.888889 -1.388889 -3.750001
v -1.611111 -1.388889 -3.750001
v -2.111111 -1.388889 -3.750001
v -0.111111 -0.888889 -4.750001
v -0.611111 -0.888889 -4.750001
v 0.888889 -0.888889 -4.750001
v -1.611111 -0.888889 -4.750001
v -2.111111 -0.888889 -4.750001
v -0.111111 -1.388889 -4.750001
v -0.611111 -1.388889 -4.750001
v 0.888889 -1.388889 -4.750001
v -1.611111 -1.388889 -4.750001
v -2.111111 -1.388889 -4.750001
vn 1.0000 -0.0000 -0.0000
vn -0.0000 -0.0000 -1.0000
vn 0.5774 -0.5774 -0.5774
vn 0.3015 -0.3015 0.9045
vn -0.0000 -0.0000 1.0000
vn -0.0000 1.0000 -0.0000
vn 0.9045 -0.3015 -0.3015
vn -1.0000 -0.0000 -0.0000
vn -0.0000 -1.0000 -0.0000
vn 0.7071 -0.7071 -0.0000
vn 0.5774 -0.5774 0.5774
vn -0.3015 -0.3015 -0.9045
vn -0.7071 -0.7071 -0.0000
vt 1.931818 0.909091
vt 1.931818 0.704545
vt 2.136363 0.704545
vt 2.136363 0.909091
vt -1.545455 1.727273
vt -1.750000 1.727273
vt -1.750000 1.522727
vt -1.545455 1.522727
vt -1.750000 1.318181
vt -1.545455 1.318181
vt -0.318182 1.727273
vt -0.522727 1.727273
vt -0.522727 1.522728
vt -0.318182 1.522728
vt -0.318182 0.295454
vt -0.522727 0.295454
vt -0.522727 0.500000
vt -0.318182 0.500000
vt 1.522727 -0.318182
vt 1.318182 -0.318182
vt 1.318182 -0.522728
vt 1.522727 -0.522728
vt 0.500000 1.727273
vt 0.295455 1.727273
vt 0.295455 1.522728
vt 0.500000 1.522728
vt -0.727273 1.522727
vt -0.931818 1.522727
vt -0.931818 1.113636
vt -0.727273 1.113636
vt -0.727273 1.727273
vt -0.931818 1.727273
vt 2.545455 0.500000
vt 2.750000 0.500000
vt 2.750000 0.704545
vt 2.545455 0.704545
vt 1.931818 -0.318182
vt 1.727272 -0.318182
vt 1.727272 -0.522727
vt 1.931818 -0.522727
vt 0.909091 2.545455
vt 0.704545 2.545455
vt 0.704545 2.136364
vt 0.909091 2.136364
vt 0.500000 2.136364
vt 0.295455 2.136364
vt 0.090909 -1.545455
vt 0.295455 -1.545455
vt 0.295455 -1.136364
vt 0.090909 -1.136364
vt -0.318182 0.909091
vt -0.113636 0.909091
vt -0.113636 0.500000
vt 2.545454 0.909091
vt 2.545454 0.704545
vt 2.750000 0.909091
vt 1.931818 0.500000
vt 1.727272 0.500000
vt 1.727272 -0.113637
vt 1.931818 -0.113637
vt 1.522727 2.136363
vt 1.318182 2.136363
vt 1.318182 1.931817
vt 1.522727 1.931817
vt 1.522727 0.500000
vt 1.318182 0.500000
vt 1.318182 -0.113637
vt 1.522727 -0.113637
vt 0.500000 0.295454
vt -0.113636 0.295454
vt 0.500000 0.500000
vt 0.295455 2.750000
vt 0.090909 2.750000
vt 0.090909 2.136364
vt 0.704545 2.136363
vt 0.500000 2.136363
vt 0.500000 1.931817
vt 0.704545 1.931817
vt -0.522727 1.318181
vt -0.522727 1.522727
vt -0.727273 1.318181
vt 0.704545 0.295454
vt 0.704545 0.500000
vt 1.522727 0.704545
vt 1.318182 0.704545
vt 1.727272 0.704545
vt 0.500000 2.545455
vt 0.295455 2.545455
vt 0.500000 0.909091
vt 1.318182 1.318181
vt 1.522728 1.318181
vt 0.500000 1.318181
vt 0.704546 1.318181
vt 2.136363 1.113636
vt 2.136363 0.500000
vt 2.340909 0.500000
vt 2.340909 1.113636
vt 2.340909 1.318181
vt 2.136363 1.318181
vt 1.727273 -0.522728
vt 1.727273 -0.318182
vt 1.318182 2.136364
vt 1.318182 2.340909
vt 1.113636 2.340909
vt 1.113636 2.136364
vt 2.545454 1.318181
vt 2.750000 1.318181
vt 2.136364 -0.318182
vt 2.136364 -0.522728
vt 2.750000 -0.522728
vt 2.750000 -0.318182
vt 2.340909 0.295454
vt 2.136363 0.295454
vt 2.136363 0.090909
vt 2.340909 0.090909
vt 0.909091 1.931817
vt 0.909091 1.318181
vt 2.340909 2.136363
vt 2.340909 1.727272
vt 2.545455 1.727272
vt 2.545455 2.136363
vt 0.909091 2.136363
vt -0.113636 1.727273
vt -0.113636 1.522728
vt -0.318182 2.750000
vt -0.318182 2.340909
vt -0.113636 2.340909
vt -0.113636 2.750000
vt -1.340909 1.727273
vt -1.340909 1.522727
vt 0.090909 -1.750000
vt -0.318182 -1.545455
vt -0.318182 -1.750000
vt -0.113636 2.136364
vt 2.750000 0.090909
vt 2.136364 0.090909
vt 1.318182 2.750000
vt 1.113636 2.750000
vt 2.340909 1.522727
vt 2.545455 1.522727
vt -0.318182 2.136364
vt 1.318182 -1.545455
vt 1.318182 -1.750000
vt 1.727273 -1.750000
vt 1.727273 -1.545455
vt 1.727273 -0.113637
vt 1.727273 0.500000
vt 1.727273 0.704545
vt -0.522727 2.340909
vt -0.522727 2.545454
vt -0.727273 2.545454
vt -0.727273 2.340909
vt -0.318182 1.931818
vt -0.522727 1.931818
vt -0.522727 2.136363
vt -0.727273 2.136363
vt 1.522727 0.909091
vt 1.727273 0.909091
vt 0.704546 1.113636
vt 0.909091 1.113636
vt 2.136364 1.727272
vt 2.136364 1.522727
vt 1.318182 1.113636
vt 2.136364 2.136363
vt 2.136363 1.522727
vt 1.727272 0.909091
vt 1.318182 0.909091
vt 1.727273 -0.727273
vt 1.931818 -0.727273
vt 1.727273 -0.522727
vt 0.704545 0.909091
vt 1.522728 1.113636
vt 0.500000 1.113636
vt 0.909091 0.704545
vt 0.909091 0.909091
vt 0.704545 0.704545
vt 1.727273 -0.931818
vt 1.727273 -1.340909
vt 1.931818 -1.340909
vt 1.931818 -0.931818
vt -1.750000 2.136363
vt -1.545455 2.136363
vt -1.545455 2.340909
vt -1.750000 2.340909
vt 1.931818 -1.545455
vt 1.318182 -0.931818
vt 1.318182 -1.340909
vt -1.340909 2.136363
vt 1.318182 -0.727273
vt -1.545455 -0.318182
vt -1.750000 -0.318182
vt -1.750000 -0.522728
vt -1.545455 -0.522728
vt -0.727273 -0.318182
vt -0.931818 -0.318182
vt -0.931818 -0.522727
vt -0.727273 -0.522727
vt -1.340909 -0.318182
vt -1.340909 -0.522728
vt -1.340909 2.340909
vt -0.931818 2.136363
vt -0.931818 2.340909
vt 1.113636 -0.727273
vt 1.318182 -0.522727
vt 1.113636 -0.522727
vt 1.931818 -1.750000
vt -0.522727 2.136364
vt -0.113636 1.113637
vt 0.295455 1.113637
vt -0.522727 2.750000
vt -0.318182 -0.113637
vt -0.522727 -0.113637
vt -0.522727 1.113636
vt 2.545454 -1.340909
vt 2.545454 -0.931818
vt 2.136363 -0.931818
vt 2.136363 -1.340909
vt -0.318182 1.113637
vt -0.522727 0.909091
vt 1.113637 2.545455
vt 1.113637 2.136364
vt -0.318182 -0.318182
vt -0.522727 -0.318182
vt 0.295455 0.909091
vt 2.136363 -1.545455
vt 2.545454 -1.750000
vt 2.545454 -1.545455
vt 2.136363 -1.750000
vt 0.909091 -0.318182
vt 0.909091 -0.522728
vt -0.522727 1.113637
vt 2.545454 -0.727273
vt 2.136363 -0.727273
vt 0.500000 1.113637
vt 2.750000 -1.545455
vt 2.750000 -1.340909
vt 2.750000 -0.931818
vt 2.750000 -1.750000
vt 2.750000 -0.727273
vt 0.704545 -0.318182
vt 0.704545 -0.522728
vt -1.136364 -0.113637
vt -0.727273 -0.113637
vt -1.136364 -0.318182
vt -1.750000 -0.113637
vt -1.340909 -0.113637
vt 0.704545 -0.727273
vt 0.704545 -0.522727
vt 2.136363 1.318182
vt 1.931818 1.318182
vt -1.340909 0.295454
vt -1.136364 0.295454
vt -0.522727 -0.522727
vt -1.750000 0.295454
vt -0.727273 0.295454
vt -0.727273 0.704545
vt -0.522727 0.704545
vt 0.295455 -0.727273
vt 0.090909 -0.727273
vt 2.136363 1.727273
vt 1.931818 1.727273
vt -0.522727 -1.136364
vt -0.318182 -1.136364
vt -0.318182 -0.727273
vt -0.522727 -0.727273
vt -0.522727 -1.545455
vt 0.704545 -1.545455
vt 0.704545 -1.136364
vt -0.727273 -0.931818
vt -0.522727 -0.931818
vt -1.340909 0.704545
vt -1.340909 1.113636
vt -1.136364 1.113636
vt -1.136364 0.704545
vt 0.295455 -0.318182
vt 0.090909 -0.318182
vt 2.136363 2.136363
vt 1.931818 2.136363
vt -1.750000 0.704545
vt -0.727273 -1.340909
vt -0.522727 -1.340909
vt 2.340909 0.704545
vt 2.545454 0.500000
vt 2.545454 1.113636
vt 2.340909 1.318182
vt 2.545454 1.318182
vt 2.545454 0.090909
vt -1.750000 1.113636
vt -0.727273 -1.750000
vt -0.522727 -1.750000
vt 2.545455 0.090909
vt 1.522727 2.136364
vt 1.522727 2.545455
vt 1.318182 2.545455
vt 0.909091 0.909090
vt 1.318182 0.909090
vt 1.522728 0.909090
s 1
usemtl Material.002
f 14/1/1 64/2/1 132/3/1 133/4/1
f 48/5/2 4/6/2 8/7/2 49/8/2
f 49/8/3 8/7/2 58/9/2 59/10/3
f 50/11/4 6/12/5 2/13/5 47/14/5
f 95/15/6 1/16/6 5/17/6 100/18/6
f 96/19/6 99/20/6 2/21/6 6/22/6
f 5/23/5 12/24/5 9/25/5 1/26/5
f 7/27/2 11/28/2 15/29/2 14/30/2
f 3/31/2 10/32/2 11/28/2 7/27/2
f 77/33/1 80/34/1 84/35/1 78/36/1
f 102/37/1 98/38/1 16/39/1 13/40/1
f 97/41/6 12/42/6 16/43/6 98/44/6
f 12/24/5 5/23/5 13/45/5 16/46/5
f 3/47/6 7/48/6 139/49/6 140/50/6
f 100/18/6 102/51/6 23/52/6 19/53/6
f 43/54/2 53/55/3 45/35/7 35/56/2
f 28/57/1 32/58/1 24/59/1 23/60/1
f 95/61/8 101/62/8 22/63/8 17/64/8
f 30/65/6 25/66/6 18/67/6 20/68/6
f 29/69/6 17/70/6 19/53/6 26/71/6
f 21/46/9 31/72/9 46/73/9 56/74/9
f 106/75/8 99/76/8 18/77/8 52/78/8
f 107/79/10 51/80/11 55/27/11 108/81/10
f 65/82/6 29/69/6 26/71/6 62/83/6
f 66/84/6 61/85/6 25/66/6 30/65/6
f 64/2/1 68/86/1 32/58/1 28/57/1
f 67/87/6 31/88/6 32/46/6 68/45/6
f 19/53/6 23/52/6 28/89/6 26/71/6
f 17/64/8 22/63/8 27/90/8 29/91/8
f 52/78/8 18/77/8 25/92/8 54/93/8
f 57/94/1 34/95/1 55/96/1 45/97/7
f 74/98/10 73/99/1 57/94/1 45/97/7
f 96/19/6 6/22/6 33/100/6 103/101/6
f 51/102/11 41/103/5 36/104/5 55/105/11
f 31/106/2 43/54/2 35/56/2 46/107/2
f 35/108/1 45/109/7 55/110/1 36/111/1
f 108/112/10 103/113/1 33/114/1 60/115/11
f 22/63/8 42/116/8 44/117/8 27/90/8
f 67/118/1 69/119/1 43/120/1 31/121/1
f 101/62/8 104/122/8 42/116/8 22/63/8
f 12/24/5 40/123/5 37/124/5 9/25/5
f 97/125/1 105/126/1 40/127/1 12/128/1
f 10/32/2 38/129/12 39/130/2 11/28/2
f 65/131/6 3/47/6 78/132/6 84/133/6
f 32/128/6 46/73/6 56/74/6 24/134/6
f 35/108/1 36/111/1 56/135/1 46/136/1
f 41/103/5 21/137/5 56/138/5 36/104/5
f 42/116/8 52/78/8 54/93/8 44/117/8
f 69/119/1 71/139/10 53/140/3 43/120/1
f 104/122/8 106/75/8 52/78/8 42/116/8
f 40/123/5 50/11/4 47/14/5 37/124/5
f 105/126/1 107/141/10 50/134/4 40/127/1
f 38/129/12 48/5/2 49/8/2 39/130/2
f 72/142/5 61/143/5 75/144/5 83/145/5
f 30/65/6 20/68/6 34/146/6 57/147/6
f 66/84/6 30/65/6 57/147/6 73/148/6
f 71/149/10 49/150/3 59/151/3 74/152/10
f 6/12/5 50/11/4 60/153/11 33/154/5
f 53/155/3 71/149/10 74/152/10 45/156/7
f 8/157/6 66/84/6 73/148/6 58/158/6
f 44/117/8 54/93/8 72/159/8 70/160/8
f 39/161/1 49/162/3 71/139/10 69/119/1
f 27/90/8 44/117/8 70/160/8 63/163/8
f 11/164/1 39/161/1 69/119/1 67/118/1
f 59/139/3 58/165/1 73/99/1 74/98/10
f 11/42/6 67/87/6 68/45/6 15/43/6
f 14/1/1 15/166/1 68/86/1 64/2/1
f 8/157/6 4/167/6 61/85/6 66/84/6
f 84/168/5 94/169/5 138/40/5 136/170/5
f 26/71/6 28/89/6 64/171/6 62/83/6
f 29/91/8 27/90/8 63/163/8 65/172/8
f 54/93/8 25/92/8 61/173/8 72/159/8
f 75/174/6 76/175/6 86/171/6 85/176/6
f 80/177/5 82/178/5 92/179/5 90/180/5
f 76/181/2 81/182/2 91/183/2 86/184/2
f 82/178/5 83/145/5 93/185/5 92/179/5
f 63/186/2 80/177/2 82/178/2 70/187/2
f 4/6/2 48/5/2 81/182/2 76/181/2
f 48/5/2 38/129/12 79/188/3 81/182/2
f 65/189/2 84/168/2 80/177/2 63/186/2
f 61/85/6 4/167/6 76/175/6 75/174/6
f 70/187/5 72/142/5 83/145/5 82/178/5
f 93/190/8 85/191/8 86/192/8 91/193/8
f 94/194/8 90/195/8 87/196/8 88/197/8
f 90/195/8 92/198/8 89/199/8 87/196/8
f 92/198/8 93/190/8 91/193/8 89/199/8
f 81/182/2 79/188/2 89/200/2 91/183/2
f 84/168/5 80/177/5 90/180/5 94/169/5
f 77/201/2 78/156/2 88/152/2 87/202/2
f 62/203/5 65/189/5 134/204/5 131/205/5
f 83/145/5 75/144/5 85/206/5 93/185/5
f 79/188/2 77/201/2 87/202/2 89/200/2
f 41/149/1 51/207/11 107/141/10 105/126/1
f 9/25/5 37/124/5 114/208/5 113/209/5
f 21/210/1 41/149/1 105/126/1 97/125/1
f 95/15/6 109/211/6 110/212/6 1/16/6
f 55/96/11 34/95/1 103/113/1 108/112/10
f 20/68/6 96/19/6 103/101/6 34/146/6
f 50/213/4 107/79/10 108/81/10 60/30/11
f 104/214/2 101/215/2 116/216/2 117/217/2
f 37/124/5 47/14/5 111/218/5 114/208/5
f 5/17/6 13/219/6 102/51/6 100/18/6
f 21/220/6 97/41/6 98/44/6 24/221/6
f 23/60/1 24/59/1 98/38/1 102/37/1
f 20/68/6 18/67/6 99/20/6 96/19/6
f 17/70/6 95/15/6 100/18/6 19/53/6
f 109/211/6 119/222/6 120/223/6 110/212/6
f 117/217/2 116/216/2 126/180/2 127/179/2
f 113/209/5 114/208/5 124/52/5 123/224/5
f 118/225/2 117/217/2 127/179/2 128/185/2
f 99/226/2 106/227/2 118/225/2 115/228/2
f 2/21/6 99/20/6 115/229/6 112/230/6
f 47/14/5 2/13/5 112/231/5 111/218/5
f 106/227/2 104/214/2 117/217/2 118/225/2
f 101/215/2 95/232/2 109/233/2 116/216/2
f 1/26/5 9/25/5 113/209/5 110/234/5
f 124/214/8 121/227/8 128/235/8 127/236/8
f 123/215/8 124/214/8 127/236/8 126/237/8
f 121/227/8 122/226/8 125/238/8 128/235/8
f 120/232/8 123/215/8 126/237/8 119/239/8
f 114/208/5 111/218/5 121/51/5 124/52/5
f 115/228/2 118/225/2 128/185/2 125/206/2
f 111/218/5 112/231/5 122/219/5 121/51/5
f 112/230/6 115/229/6 125/240/6 122/241/6
f 116/216/2 109/233/2 119/169/2 126/180/2
f 110/234/5 113/209/5 123/224/5 120/89/5
f 130/242/6 135/243/6 136/194/6 134/244/6
f 131/198/6 132/191/6 133/245/6 129/246/6
f 130/242/6 134/244/6 131/198/6 129/246/6
f 135/243/6 137/212/6 138/223/6 136/194/6
f 64/247/5 62/203/5 131/205/5 132/248/5
f 14/1/1 133/4/1 146/249/1 141/250/1
f 129/246/6 144/251/6 145/252/6 130/242/6
f 94/194/8 88/197/8 137/253/8 138/223/8
f 133/245/6 146/254/6 144/251/6 129/246/6
f 65/189/5 84/168/5 136/170/5 134/204/5
f 147/255/6 157/256/6 158/257/6 148/16/6
f 140/50/6 139/49/6 149/258/6 150/259/6
f 141/250/1 146/249/1 156/260/1 151/261/1
f 143/262/6 142/263/6 152/264/6 153/265/6
f 130/242/6 145/252/6 147/255/6 135/243/6
f 78/132/6 3/47/6 140/50/6 142/263/6
f 88/266/6 78/132/6 142/263/6 143/262/6
f 7/48/6 14/267/6 141/268/6 139/49/6
f 135/243/6 147/255/6 148/16/6 137/212/6
f 137/253/8 88/197/8 143/269/8 148/270/8
f 154/271/6 164/272/6 165/273/6 155/274/6
f 157/256/6 167/30/6 168/213/6 158/257/6
f 150/259/6 149/258/6 159/275/6 160/276/6
f 151/261/1 156/260/1 166/277/1 161/278/1
f 144/251/6 154/271/6 155/274/6 145/252/6
f 139/49/6 141/268/6 151/247/6 149/258/6
f 146/254/6 156/279/6 154/271/6 144/251/6
f 148/270/8 143/269/8 153/280/8 158/281/8
f 142/263/6 140/50/6 150/259/6 152/264/6
f 145/252/6 155/274/6 157/256/6 147/255/6
f 160/282/2 159/96/2 164/283/2 165/55/2
f 162/97/2 160/282/2 165/55/2 167/284/2
f 163/285/2 162/97/2 167/284/2 168/286/2
f 159/96/2 161/115/2 166/287/2 164/283/2
f 149/258/6 151/247/6 161/240/6 159/275/6
f 156/279/6 166/288/6 164/272/6 154/271/6
f 158/281/8 153/280/8 163/289/8 168/290/8
f 152/264/6 150/259/6 160/276/6 162/222/6
f 155/274/6 165/273/6 167/30/6 157/256/6
f 153/265/6 152/264/6 162/222/6 163/223/6
f 79/291/3 82/135/10 80/34/1 77/33/1
f 82/102/10 79/292/3 38/293/12 70/294/13
f 70/160/13 38/295/12 10/296/8 63/163/8
f 63/163/8 10/296/8 3/297/8 65/172/8
