# Blender 5.0.0
# www.blender.org
mtllib house.mtl
o house
v 0.200000 0.000000 -0.200000
v 0.200000 -0.000000 0.200000
v 0.200000 0.400000 -0.200000
v 0.200000 0.400000 0.200000
v -0.200000 0.000000 -0.200000
v -0.200000 -0.000000 0.200000
v -0.200000 0.400000 -0.200000
v -0.200000 0.400000 0.200000
vn -0.0000 -0.0000 -1.0000
vn -0.0000 1.0000 -0.0000
vn -1.0000 -0.0000 -0.0000
vn -0.0000 -0.0000 1.0000
vn 1.0000 -0.0000 -0.0000
vn -0.0000 -1.0000 -0.0000
vt 0.000096 0.000096
vt 0.250048 0.000096
vt 0.250048 0.250048
vt 0.000096 0.250048
vt 0.500000 0.500000
vt 0.250048 0.500000
vt 0.500000 0.250048
vt 0.500000 0.000096
vt 0.750143 0.250048
vt 0.500191 0.250048
vt 0.500191 0.000096
vt 0.750143 0.000096
vt 0.500000 0.749952
vt 0.250048 0.749952
vt 0.500000 0.999904
vt 0.250048 0.999904
s 0
usemtl house
f 1/1/1 5/2/1 7/3/1 3/4/1
f 4/5/2 3/6/2 7/3/2 8/7/2
f 8/7/3 7/3/3 5/2/3 6/8/3
f 6/9/4 2/10/4 4/11/4 8/12/4
f 2/13/5 1/14/5 3/6/5 4/5/5
f 6/15/6 5/16/6 1/14/6 2/13/6
