# Blender 5.0.1
# www.blender.org
mtllib Back_Pipe_Vert_1.mtl
o rura_prosta.015
v 0.000000 -2.000000 0.140001
v 0.000000 -2.400000 0.140001
v 0.098995 -2.400000 0.098996
v 0.140000 -2.400000 0.000001
v 0.098995 -2.000000 -0.098994
v 0.098995 -2.400000 -0.098994
v 0.000000 -2.000000 -0.139999
v 0.000000 -2.400000 -0.139999
v -0.098995 -2.000000 -0.098994
v -0.098995 -2.400000 -0.098994
v -0.140000 -2.000000 0.000001
v -0.140000 -2.400000 0.000001
v -0.098995 -2.400000 0.098996
v 0.072614 -2.000000 -0.072613
v 0.000000 -2.400000 0.102693
v 0.072614 -2.400000 0.072615
v 0.102692 -2.400000 0.000001
v 0.072614 -2.400000 -0.072613
v 0.000000 -2.400000 -0.102691
v -0.072614 -2.400000 -0.072613
v -0.102691 -2.400000 0.000001
v -0.072614 -2.400000 0.072615
v 0.098995 -1.600000 0.098996
v 0.098995 -2.000000 0.098996
v 0.140000 -2.000000 0.000001
v -0.140000 -1.600000 0.000001
v -0.098995 -2.000000 0.098996
v 0.072614 -1.600000 0.072615
v 0.102692 -1.600000 0.000001
v -0.102691 -1.600000 0.000001
v -0.072614 -1.600000 0.072615
v 0.000000 -2.000000 0.102693
v 0.072614 -2.000000 0.072615
v 0.102692 -2.000000 0.000001
v 0.000000 -2.000000 -0.102691
v -0.072614 -2.000000 -0.072613
v -0.102691 -2.000000 0.000001
v -0.072614 -2.000000 0.072615
v 0.000000 -1.200000 0.140001
v 0.000000 -1.600000 0.140001
v 0.098995 -1.200000 0.098996
v 0.140000 -1.200000 0.000001
v 0.140000 -1.600000 0.000001
v 0.098995 -1.200000 -0.098994
v 0.098995 -1.600000 -0.098994
v 0.000000 -1.200000 -0.139999
v 0.000000 -1.600000 -0.139999
v -0.098995 -1.200000 -0.098994
v -0.098995 -1.600000 -0.098994
v -0.140000 -1.200000 0.000001
v -0.098995 -1.200000 0.098996
v -0.098995 -1.600000 0.098996
v 0.000000 -1.200000 0.102693
v 0.072614 -1.200000 0.072615
v 0.102692 -1.200000 0.000001
v 0.072614 -1.200000 -0.072613
v 0.000000 -1.200000 -0.102691
v -0.072614 -1.200000 -0.072613
v -0.102691 -1.200000 0.000001
v -0.072614 -1.200000 0.072615
v 0.000000 -1.600000 0.102693
v 0.072614 -1.600000 -0.072613
v 0.000000 -1.600000 -0.102691
v -0.072614 -1.600000 -0.072613
v 0.000000 -0.399999 0.140001
v 0.000000 -0.800000 0.140001
v 0.098995 -0.800000 0.098996
v 0.140000 -0.800000 0.000001
v 0.098995 -0.800000 -0.098994
v 0.000000 -0.399999 -0.139999
v 0.000000 -0.800000 -0.139999
v -0.098995 -0.800000 -0.098994
v -0.140000 -0.800000 0.000001
v -0.098995 -0.800000 0.098996
v 0.000000 -0.399999 0.102693
v 0.072614 -0.399999 0.072615
v 0.102692 -0.399999 0.000001
v 0.072614 -0.399999 -0.072613
v 0.000000 -0.399999 -0.102691
v -0.072614 -0.399999 0.072615
v 0.000000 -0.800000 0.102693
v 0.072614 -0.800000 0.072615
v 0.102692 -0.800000 0.000001
v 0.072614 -0.800000 -0.072613
v 0.000000 -0.800000 -0.102691
v -0.072614 -0.800000 -0.072613
v -0.102691 -0.800000 0.000001
v -0.072614 -0.800000 0.072615
v 0.000000 0.000001 0.140001
v 0.098995 0.000001 0.098996
v 0.098995 -0.399999 0.098996
v 0.140000 0.000001 0.000001
v 0.140000 -0.399999 0.000001
v 0.098995 0.000001 -0.098994
v 0.098995 -0.399999 -0.098994
v 0.000000 0.000001 -0.139999
v -0.098995 0.000001 -0.098994
v -0.098995 -0.399999 -0.098994
v -0.140000 0.000001 0.000001
v -0.140000 -0.399999 0.000001
v -0.098995 0.000001 0.098996
v -0.098995 -0.399999 0.098996
v 0.000000 0.000001 0.102693
v 0.072614 0.000001 0.072615
v 0.102692 0.000001 0.000001
v 0.072614 0.000001 -0.072613
v 0.000000 0.000001 -0.102691
v -0.072614 0.000001 -0.072613
v -0.102691 0.000001 0.000001
v -0.072614 0.000001 0.072615
v -0.072614 -0.399999 -0.072613
v -0.102691 -0.399999 0.000001
v 0.000000 0.800001 0.140001
v 0.000000 0.400001 0.140001
v 0.098995 0.800001 0.098996
v 0.098995 0.400001 0.098996
v 0.140000 0.800001 0.000001
v 0.140000 0.400001 0.000001
v 0.098995 0.800001 -0.098994
v 0.098995 0.400001 -0.098994
v 0.000000 0.800001 -0.139999
v 0.000000 0.400001 -0.139999
v -0.098995 0.800001 -0.098994
v -0.098995 0.400001 -0.098994
v -0.140000 0.800001 0.000001
v -0.140000 0.400001 0.000001
v -0.098995 0.800001 0.098996
v -0.098995 0.400001 0.098996
v 0.000000 0.800001 0.102693
v 0.072614 0.800001 0.072615
v 0.102692 0.800001 0.000001
v 0.072614 0.800001 -0.072613
v 0.000000 0.800001 -0.102691
v -0.072614 0.800001 -0.072613
v -0.102691 0.800001 0.000001
v -0.072614 0.800001 0.072615
v 0.000000 0.400001 0.102693
v 0.072614 0.400001 0.072615
v 0.102692 0.400001 0.000001
v 0.072614 0.400001 -0.072613
v 0.000000 0.400001 -0.102691
v -0.072614 0.400001 -0.072613
v -0.102691 0.400001 0.000001
v -0.072614 0.400001 0.072615
v 0.000000 1.200001 0.140001
v 0.098995 1.200001 0.098996
v 0.140000 1.200001 0.000001
v 0.098995 1.200001 -0.098994
v 0.000000 1.200001 -0.139999
v -0.098995 1.200001 -0.098994
v -0.140000 1.200001 0.000001
v -0.098995 1.200001 0.098996
v 0.000000 1.200001 0.102693
v 0.072614 1.200001 0.072615
v 0.102692 1.200001 0.000001
v 0.072614 1.200001 -0.072613
v 0.000000 1.200001 -0.102691
v -0.072614 1.200001 -0.072613
v -0.102691 1.200001 0.000001
v -0.072614 1.200001 0.072615
v 0.000000 1.600001 0.140001
v 0.098995 1.600001 0.098996
v 0.140000 1.600001 0.000001
v 0.098995 1.600001 -0.098994
v 0.000000 1.600001 -0.139999
v -0.098995 1.600001 -0.098994
v -0.140000 1.600001 0.000001
v -0.098995 1.600001 0.098996
v 0.000000 1.600001 0.102693
v 0.072614 1.600001 0.072615
v 0.102692 1.600001 0.000001
v 0.072614 1.600001 -0.072613
v 0.000000 1.600001 -0.102691
v -0.072614 1.600001 -0.072613
v -0.102691 1.600001 0.000001
v -0.072614 1.600001 0.072615
v 0.000000 2.000001 0.140001
v 0.140000 2.000001 0.000001
v 0.072614 2.000001 0.072615
v 0.072614 2.000001 -0.072613
v 0.000000 2.000001 -0.102691
v -0.072614 2.000001 -0.072613
v -0.102691 2.000001 0.000001
v 0.000000 2.400002 0.140001
v 0.098995 2.400002 0.098996
v 0.098995 2.000001 0.098996
v 0.140000 2.400002 0.000001
v 0.098995 2.400002 -0.098994
v 0.098995 2.000001 -0.098994
v 0.000000 2.400002 -0.139999
v 0.000000 2.000001 -0.139999
v -0.098995 2.400002 -0.098994
v -0.098995 2.000001 -0.098994
v -0.140000 2.400002 0.000001
v -0.140000 2.000001 0.000001
v -0.098995 2.400002 0.098996
v -0.098995 2.000001 0.098996
v 0.000000 2.400002 0.102693
v 0.072614 2.400002 0.072615
v 0.102692 2.400002 0.000001
v 0.072614 2.400002 -0.072613
v 0.000000 2.400002 -0.102691
v -0.072614 2.400002 -0.072613
v -0.102691 2.400002 0.000001
v -0.072614 2.400002 0.072615
v 0.000000 2.000001 0.102693
v 0.102692 2.000001 0.000001
v -0.072614 2.000001 0.072615
vn 0.3827 -0.0000 0.9239
vn 0.9239 -0.0000 0.3827
vn 0.9239 -0.0000 -0.3827
vn 0.3827 -0.0000 -0.9239
vn -0.3827 -0.0000 -0.9239
vn -0.9239 -0.0000 -0.3827
vn -0.0000 -1.0000 -0.0000
vn -0.9239 -0.0000 0.3827
vn -0.3827 -0.0000 0.9239
vn -0.0000 1.0000 -0.0000
vt 0.323538 0.319813
vt 0.323538 0.013520
vt 0.440751 0.013520
vt 0.440751 0.319813
vt 0.467791 0.319813
vt 0.467791 0.013520
vt 0.585005 0.013520
vt 0.585005 0.319813
vt 0.323538 0.653147
vt 0.323538 0.346853
vt 0.440751 0.346853
vt 0.440751 0.653147
vt 0.467791 0.653147
vt 0.467791 0.346853
vt 0.585005 0.346853
vt 0.585005 0.653147
vt 0.612045 0.319813
vt 0.612045 0.013520
vt 0.729258 0.013520
vt 0.729258 0.319813
vt 0.612045 0.653147
vt 0.612045 0.346853
vt 0.729258 0.346853
vt 0.729258 0.653147
vt 0.197998 0.258793
vt 0.258793 0.197998
vt 0.296498 0.213616
vt 0.213616 0.296498
vt 0.756298 0.319813
vt 0.756298 0.013520
vt 0.873512 0.013520
vt 0.873512 0.319813
vt 0.756298 0.653147
vt 0.756298 0.346853
vt 0.873512 0.346853
vt 0.873512 0.653147
vt 0.213616 0.323538
vt 0.296498 0.406420
vt 0.258793 0.422038
vt 0.197998 0.361243
vt 0.099497 0.939850
vt 0.013520 0.939850
vt 0.013520 0.633556
vt 0.099497 0.633556
vt 0.213616 0.606516
vt 0.096402 0.606516
vt 0.112020 0.568811
vt 0.197998 0.568811
vt 0.296498 0.523634
vt 0.258793 0.508016
vt 0.013520 0.523634
vt 0.051225 0.508016
vt 0.013520 0.406420
vt 0.051225 0.422038
vt 0.096402 0.323538
vt 0.112020 0.361243
vt 0.112020 0.258793
vt 0.096402 0.296498
vt 0.212515 0.939850
vt 0.126538 0.939850
vt 0.126538 0.633556
vt 0.212515 0.633556
vt 0.409516 0.986480
vt 0.323538 0.986480
vt 0.323538 0.680187
vt 0.409516 0.680187
vt 0.522533 0.986480
vt 0.436556 0.986480
vt 0.436556 0.680187
vt 0.522533 0.680187
vt 0.635551 0.986480
vt 0.549573 0.986480
vt 0.549573 0.680187
vt 0.635551 0.680187
vt 0.748568 0.986480
vt 0.662591 0.986480
vt 0.662591 0.680187
vt 0.748568 0.680187
vt 0.861586 0.986480
vt 0.775608 0.986480
vt 0.775608 0.680187
vt 0.861586 0.680187
vt 0.974603 0.986480
vt 0.888626 0.986480
vt 0.888626 0.680187
vt 0.974603 0.680187
vt 0.258793 0.112020
vt 0.296498 0.096402
vt 0.197998 0.051225
vt 0.213616 0.013520
vt 0.112020 0.051225
vt 0.096402 0.013520
vt 0.051225 0.112020
vt 0.013520 0.096402
vt 0.051225 0.197998
vt 0.013520 0.213616
s 1
usemtl Material.004
f 1/1/1 2/2/1 3/3/1 24/4/1
f 24/5/2 3/6/2 4/7/2 25/8/2
f 25/9/3 4/10/3 6/11/3 5/12/3
f 5/13/4 6/14/4 8/15/4 7/16/4
f 7/17/5 8/18/5 10/19/5 9/20/5
f 9/21/6 10/22/6 12/23/6 11/24/6
f 17/25/7 18/26/7 6/27/7 4/28/7
f 11/29/8 12/30/8 13/31/8 27/32/8
f 27/33/9 13/34/9 2/35/9 1/36/9
f 5/37/10 7/38/10 35/39/10 14/40/10
f 14/41/9 35/42/9 19/43/9 18/44/9
f 11/45/10 27/46/10 38/47/10 37/48/10
f 7/38/10 9/49/10 36/50/10 35/39/10
f 27/46/10 1/51/10 32/52/10 38/47/10
f 1/51/10 24/53/10 33/54/10 32/52/10
f 25/55/10 5/37/10 14/40/10 34/56/10
f 9/49/10 11/45/10 37/48/10 36/50/10
f 16/57/7 17/25/7 4/28/7 3/58/7
f 33/59/6 34/60/6 17/61/6 16/62/6
f 37/63/3 38/64/3 22/65/3 21/66/3
f 35/67/1 36/68/1 20/69/1 19/70/1
f 34/71/8 14/72/8 18/73/8 17/74/8
f 32/75/5 33/76/5 16/77/5 15/78/5
f 38/79/4 32/80/4 15/81/4 22/82/4
f 36/83/2 37/84/2 21/85/2 20/86/2
f 18/26/7 19/87/7 8/88/7 6/27/7
f 19/87/7 20/89/7 10/90/7 8/88/7
f 20/89/7 21/91/7 12/92/7 10/90/7
f 21/91/7 22/93/7 13/94/7 12/92/7
f 22/93/7 15/95/7 2/96/7 13/94/7
f 15/95/7 16/57/7 3/58/7 2/96/7
f 40/1/1 1/2/1 24/3/1 23/4/1
f 23/5/2 24/6/2 25/7/2 43/8/2
f 43/9/3 25/10/3 5/11/3 45/12/3
f 45/13/4 5/14/4 7/15/4 47/16/4
f 47/17/5 7/18/5 9/19/5 49/20/5
f 49/21/6 9/22/6 11/23/6 26/24/6
f 26/29/8 11/30/8 27/31/8 52/32/8
f 52/33/9 27/34/9 1/35/9 40/36/9
f 62/41/9 63/42/9 35/43/9 14/44/9
f 26/45/10 52/46/10 31/47/10 30/48/10
f 23/53/10 43/55/10 29/56/10 28/54/10
f 52/46/10 40/51/10 61/52/10 31/47/10
f 40/51/10 23/53/10 28/54/10 61/52/10
f 43/55/10 45/37/10 62/40/10 29/56/10
f 49/49/10 26/45/10 30/48/10 64/50/10
f 33/57/7 34/25/7 25/28/7 24/58/7
f 28/59/6 29/60/6 34/61/6 33/62/6
f 30/63/3 31/64/3 38/65/3 37/66/3
f 63/67/1 64/68/1 36/69/1 35/70/1
f 29/71/8 62/72/8 14/73/8 34/74/8
f 61/75/5 28/76/5 33/77/5 32/78/5
f 31/79/4 61/80/4 32/81/4 38/82/4
f 64/83/2 30/84/2 37/85/2 36/86/2
f 39/1/1 40/2/1 23/3/1 41/4/1
f 41/5/2 23/6/2 43/7/2 42/8/2
f 42/9/3 43/10/3 45/11/3 44/12/3
f 44/13/4 45/14/4 47/15/4 46/16/4
f 46/17/5 47/18/5 49/19/5 48/20/5
f 48/21/6 49/22/6 26/23/6 50/24/6
f 50/29/8 26/30/8 52/31/8 51/32/8
f 51/33/9 52/34/9 40/35/9 39/36/9
f 44/37/10 46/38/10 57/39/10 56/40/10
f 56/41/9 57/42/9 63/43/9 62/44/9
f 50/45/10 51/46/10 60/47/10 59/48/10
f 41/53/10 42/55/10 55/56/10 54/54/10
f 46/38/10 48/49/10 58/50/10 57/39/10
f 51/46/10 39/51/10 53/52/10 60/47/10
f 39/51/10 41/53/10 54/54/10 53/52/10
f 42/55/10 44/37/10 56/40/10 55/56/10
f 48/49/10 50/45/10 59/48/10 58/50/10
f 54/59/6 55/60/6 29/61/6 28/62/6
f 59/63/3 60/64/3 31/65/3 30/66/3
f 57/67/1 58/68/1 64/69/1 63/70/1
f 55/71/8 56/72/8 62/73/8 29/74/8
f 53/75/5 54/76/5 28/77/5 61/78/5
f 60/79/4 53/80/4 61/81/4 31/82/4
f 58/83/2 59/84/2 30/85/2 64/86/2
f 62/26/7 63/87/7 47/88/7 45/27/7
f 63/87/7 64/89/7 49/90/7 47/88/7
f 66/1/1 39/2/1 41/3/1 67/4/1
f 67/5/2 41/6/2 42/7/2 68/8/2
f 68/9/3 42/10/3 44/11/3 69/12/3
f 69/13/4 44/14/4 46/15/4 71/16/4
f 71/17/5 46/18/5 48/19/5 72/20/5
f 72/21/6 48/22/6 50/23/6 73/24/6
f 73/29/8 50/30/8 51/31/8 74/32/8
f 74/33/9 51/34/9 39/35/9 66/36/9
f 84/41/9 85/42/9 57/43/9 56/44/9
f 82/59/6 83/60/6 55/61/6 54/62/6
f 87/63/3 88/64/3 60/65/3 59/66/3
f 85/67/1 86/68/1 58/69/1 57/70/1
f 83/71/8 84/72/8 56/73/8 55/74/8
f 81/75/5 82/76/5 54/77/5 53/78/5
f 88/79/4 81/80/4 53/81/4 60/82/4
f 86/83/2 87/84/2 59/85/2 58/86/2
f 65/1/1 66/2/1 67/3/1 91/4/1
f 91/5/2 67/6/2 68/7/2 93/8/2
f 93/9/3 68/10/3 69/11/3 95/12/3
f 95/13/4 69/14/4 71/15/4 70/16/4
f 70/17/5 71/18/5 72/19/5 98/20/5
f 98/21/6 72/22/6 73/23/6 100/24/6
f 83/25/7 84/26/7 69/27/7 68/28/7
f 100/29/8 73/30/8 74/31/8 102/32/8
f 102/33/9 74/34/9 66/35/9 65/36/9
f 95/37/10 70/38/10 79/39/10 78/40/10
f 78/41/9 79/42/9 85/43/9 84/44/9
f 100/45/10 102/46/10 80/47/10 112/48/10
f 91/53/10 93/55/10 77/56/10 76/54/10
f 70/38/10 98/49/10 111/50/10 79/39/10
f 102/46/10 65/51/10 75/52/10 80/47/10
f 65/51/10 91/53/10 76/54/10 75/52/10
f 93/55/10 95/37/10 78/40/10 77/56/10
f 82/57/7 83/25/7 68/28/7 67/58/7
f 76/59/6 77/60/6 83/61/6 82/62/6
f 112/63/3 80/64/3 88/65/3 87/66/3
f 79/67/1 111/68/1 86/69/1 85/70/1
f 77/71/8 78/72/8 84/73/8 83/74/8
f 75/75/5 76/76/5 82/77/5 81/78/5
f 80/79/4 75/80/4 81/81/4 88/82/4
f 111/83/2 112/84/2 87/85/2 86/86/2
f 84/26/7 85/87/7 71/88/7 69/27/7
f 85/87/7 86/89/7 72/90/7 71/88/7
f 86/89/7 87/91/7 73/92/7 72/90/7
f 87/91/7 88/93/7 74/94/7 73/92/7
f 88/93/7 81/95/7 66/96/7 74/94/7
f 81/95/7 82/57/7 67/58/7 66/96/7
f 89/1/1 65/2/1 91/3/1 90/4/1
f 90/5/2 91/6/2 93/7/2 92/8/2
f 92/9/3 93/10/3 95/11/3 94/12/3
f 94/13/4 95/14/4 70/15/4 96/16/4
f 96/17/5 70/18/5 98/19/5 97/20/5
f 97/21/6 98/22/6 100/23/6 99/24/6
f 99/29/8 100/30/8 102/31/8 101/32/8
f 101/33/9 102/34/9 65/35/9 89/36/9
f 94/37/10 96/38/10 107/39/10 106/40/10
f 106/41/9 107/42/9 79/43/9 78/44/9
f 99/45/10 101/46/10 110/47/10 109/48/10
f 90/53/10 92/55/10 105/56/10 104/54/10
f 96/38/10 97/49/10 108/50/10 107/39/10
f 101/46/10 89/51/10 103/52/10 110/47/10
f 89/51/10 90/53/10 104/54/10 103/52/10
f 92/55/10 94/37/10 106/40/10 105/56/10
f 97/49/10 99/45/10 109/48/10 108/50/10
f 104/59/6 105/60/6 77/61/6 76/62/6
f 109/63/3 110/64/3 80/65/3 112/66/3
f 107/67/1 108/68/1 111/69/1 79/70/1
f 105/71/8 106/72/8 78/73/8 77/74/8
f 103/75/5 104/76/5 76/77/5 75/78/5
f 110/79/4 103/80/4 75/81/4 80/82/4
f 108/83/2 109/84/2 112/85/2 111/86/2
f 111/89/7 112/91/7 100/92/7 98/90/7
f 114/1/1 89/2/1 90/3/1 116/4/1
f 116/5/2 90/6/2 92/7/2 118/8/2
f 118/9/3 92/10/3 94/11/3 120/12/3
f 120/13/4 94/14/4 96/15/4 122/16/4
f 122/17/5 96/18/5 97/19/5 124/20/5
f 124/21/6 97/22/6 99/23/6 126/24/6
f 126/29/8 99/30/8 101/31/8 128/32/8
f 128/33/9 101/34/9 89/35/9 114/36/9
f 140/41/9 141/42/9 107/43/9 106/44/9
f 138/59/6 139/60/6 105/61/6 104/62/6
f 143/63/3 144/64/3 110/65/3 109/66/3
f 141/67/1 142/68/1 108/69/1 107/70/1
f 139/71/8 140/72/8 106/73/8 105/74/8
f 137/75/5 138/76/5 104/77/5 103/78/5
f 144/79/4 137/80/4 103/81/4 110/82/4
f 142/83/2 143/84/2 109/85/2 108/86/2
f 113/1/1 114/2/1 116/3/1 115/4/1
f 115/5/2 116/6/2 118/7/2 117/8/2
f 117/9/3 118/10/3 120/11/3 119/12/3
f 119/13/4 120/14/4 122/15/4 121/16/4
f 121/17/5 122/18/5 124/19/5 123/20/5
f 123/21/6 124/22/6 126/23/6 125/24/6
f 139/25/7 140/26/7 120/27/7 118/28/7
f 125/29/8 126/30/8 128/31/8 127/32/8
f 127/33/9 128/34/9 114/35/9 113/36/9
f 119/37/10 121/38/10 133/39/10 132/40/10
f 132/41/9 133/42/9 141/43/9 140/44/9
f 125/45/10 127/46/10 136/47/10 135/48/10
f 115/53/10 117/55/10 131/56/10 130/54/10
f 121/38/10 123/49/10 134/50/10 133/39/10
f 127/46/10 113/51/10 129/52/10 136/47/10
f 113/51/10 115/53/10 130/54/10 129/52/10
f 117/55/10 119/37/10 132/40/10 131/56/10
f 123/49/10 125/45/10 135/48/10 134/50/10
f 138/57/7 139/25/7 118/28/7 116/58/7
f 130/59/6 131/60/6 139/61/6 138/62/6
f 135/63/3 136/64/3 144/65/3 143/66/3
f 133/67/1 134/68/1 142/69/1 141/70/1
f 131/71/8 132/72/8 140/73/8 139/74/8
f 129/75/5 130/76/5 138/77/5 137/78/5
f 136/79/4 129/80/4 137/81/4 144/82/4
f 134/83/2 135/84/2 143/85/2 142/86/2
f 140/26/7 141/87/7 122/88/7 120/27/7
f 141/87/7 142/89/7 124/90/7 122/88/7
f 142/89/7 143/91/7 126/92/7 124/90/7
f 143/91/7 144/93/7 128/94/7 126/92/7
f 144/93/7 137/95/7 114/96/7 128/94/7
f 137/95/7 138/57/7 116/58/7 114/96/7
f 145/1/1 113/2/1 115/3/1 146/4/1
f 146/5/2 115/6/2 117/7/2 147/8/2
f 147/9/3 117/10/3 119/11/3 148/12/3
f 148/13/4 119/14/4 121/15/4 149/16/4
f 149/17/5 121/18/5 123/19/5 150/20/5
f 150/21/6 123/22/6 125/23/6 151/24/6
f 151/29/8 125/30/8 127/31/8 152/32/8
f 152/33/9 127/34/9 113/35/9 145/36/9
f 148/37/10 149/38/10 157/39/10 156/40/10
f 156/41/9 157/42/9 133/43/9 132/44/9
f 151/45/10 152/46/10 160/47/10 159/48/10
f 146/53/10 147/55/10 155/56/10 154/54/10
f 149/38/10 150/49/10 158/50/10 157/39/10
f 152/46/10 145/51/10 153/52/10 160/47/10
f 145/51/10 146/53/10 154/54/10 153/52/10
f 147/55/10 148/37/10 156/40/10 155/56/10
f 150/49/10 151/45/10 159/48/10 158/50/10
f 154/59/6 155/60/6 131/61/6 130/62/6
f 159/63/3 160/64/3 136/65/3 135/66/3
f 157/67/1 158/68/1 134/69/1 133/70/1
f 155/71/8 156/72/8 132/73/8 131/74/8
f 153/75/5 154/76/5 130/77/5 129/78/5
f 160/79/4 153/80/4 129/81/4 136/82/4
f 158/83/2 159/84/2 135/85/2 134/86/2
f 161/1/1 145/2/1 146/3/1 162/4/1
f 162/5/2 146/6/2 147/7/2 163/8/2
f 163/9/3 147/10/3 148/11/3 164/12/3
f 164/13/4 148/14/4 149/15/4 165/16/4
f 165/17/5 149/18/5 150/19/5 166/20/5
f 166/21/6 150/22/6 151/23/6 167/24/6
f 167/29/8 151/30/8 152/31/8 168/32/8
f 168/33/9 152/34/9 145/35/9 161/36/9
f 164/37/10 165/38/10 173/39/10 172/40/10
f 172/41/9 173/42/9 157/43/9 156/44/9
f 167/45/10 168/46/10 176/47/10 175/48/10
f 162/53/10 163/55/10 171/56/10 170/54/10
f 165/38/10 166/49/10 174/50/10 173/39/10
f 168/46/10 161/51/10 169/52/10 176/47/10
f 161/51/10 162/53/10 170/54/10 169/52/10
f 163/55/10 164/37/10 172/40/10 171/56/10
f 166/49/10 167/45/10 175/48/10 174/50/10
f 170/59/6 171/60/6 155/61/6 154/62/6
f 175/63/3 176/64/3 160/65/3 159/66/3
f 173/67/1 174/68/1 158/69/1 157/70/1
f 171/71/8 172/72/8 156/73/8 155/74/8
f 169/75/5 170/76/5 154/77/5 153/78/5
f 176/79/4 169/80/4 153/81/4 160/82/4
f 174/83/2 175/84/2 159/85/2 158/86/2
f 177/1/1 161/2/1 162/3/1 186/4/1
f 186/5/2 162/6/2 163/7/2 178/8/2
f 178/9/3 163/10/3 164/11/3 189/12/3
f 189/13/4 164/14/4 165/15/4 191/16/4
f 191/17/5 165/18/5 166/19/5 193/20/5
f 193/21/6 166/22/6 167/23/6 195/24/6
f 195/29/8 167/30/8 168/31/8 197/32/8
f 197/33/9 168/34/9 161/35/9 177/36/9
f 189/37/10 191/38/10 181/39/10 180/40/10
f 180/41/9 181/42/9 173/43/9 172/44/9
f 195/45/10 197/46/10 208/47/10 183/48/10
f 186/53/10 178/55/10 207/56/10 179/54/10
f 191/38/10 193/49/10 182/50/10 181/39/10
f 197/46/10 177/51/10 206/52/10 208/47/10
f 177/51/10 186/53/10 179/54/10 206/52/10
f 178/55/10 189/37/10 180/40/10 207/56/10
f 193/49/10 195/45/10 183/48/10 182/50/10
f 179/59/6 207/60/6 171/61/6 170/62/6
f 183/63/3 208/64/3 176/65/3 175/66/3
f 181/67/1 182/68/1 174/69/1 173/70/1
f 207/71/8 180/72/8 172/73/8 171/74/8
f 206/75/5 179/76/5 170/77/5 169/78/5
f 208/79/4 206/80/4 169/81/4 176/82/4
f 182/83/2 183/84/2 175/85/2 174/86/2
f 184/1/1 177/2/1 186/3/1 185/4/1
f 185/5/2 186/6/2 178/7/2 187/8/2
f 187/9/3 178/10/3 189/11/3 188/12/3
f 188/13/4 189/14/4 191/15/4 190/16/4
f 190/17/5 191/18/5 193/19/5 192/20/5
f 192/21/6 193/22/6 195/23/6 194/24/6
f 194/29/8 195/30/8 197/31/8 196/32/8
f 196/33/9 197/34/9 177/35/9 184/36/9
f 188/37/10 190/38/10 202/39/10 201/40/10
f 201/41/9 202/42/9 181/43/9 180/44/9
f 194/45/10 196/46/10 205/47/10 204/48/10
f 185/53/10 187/55/10 200/56/10 199/54/10
f 190/38/10 192/49/10 203/50/10 202/39/10
f 196/46/10 184/51/10 198/52/10 205/47/10
f 184/51/10 185/53/10 199/54/10 198/52/10
f 187/55/10 188/37/10 201/40/10 200/56/10
f 192/49/10 194/45/10 204/48/10 203/50/10
f 199/59/6 200/60/6 207/61/6 179/62/6
f 204/63/3 205/64/3 208/65/3 183/66/3
f 202/67/1 203/68/1 182/69/1 181/70/1
f 200/71/8 201/72/8 180/73/8 207/74/8
f 198/75/5 199/76/5 179/77/5 206/78/5
f 205/79/4 198/80/4 206/81/4 208/82/4
f 203/83/2 204/84/2 183/85/2 182/86/2
