# Blender 5.0.0
# www.blender.org
mtllib Back_4x1.mtl
o Cube.007
v 0.250000 -0.250000 -0.250000
v 0.250000 -0.250000 0.250000
v 0.250000 0.250000 -0.250000
v 0.250000 0.250000 0.250000
v -0.250000 -0.250000 -0.250000
v -0.250000 -0.250000 0.250000
v -0.250000 0.250000 -0.250000
v -0.250000 0.250000 0.250000
v 0.750000 -0.250000 -0.250000
v 0.750000 0.250000 -0.250000
v 0.750000 0.250000 0.250000
v 0.750000 -0.250000 0.250000
v 1.250000 -0.250000 -0.250000
v 1.250000 0.250000 -0.250000
v 1.250000 0.250000 0.250000
v 1.250000 -0.250000 0.250000
v 1.750000 -0.250000 -0.250000
v 1.750000 0.250000 -0.250000
v 1.750000 0.250000 0.250000
v 1.750000 -0.250000 0.250000
vn -0.1172 -0.0000 -0.9931
vn 0.1000 0.0268 -0.9946
vn 0.0732 -0.0732 -0.9946
vn -0.0449 -0.1083 -0.9931
vn -0.0449 0.9931 -0.1083
vn -0.1083 0.9931 0.0449
vn 0.0732 0.9946 0.0732
vn 0.0732 0.9946 -0.0732
vn -0.9946 -0.0732 -0.0732
vn -0.9946 -0.0732 0.0732
vn -0.9946 0.1000 0.0268
vn -0.9946 0.1000 -0.0268
vn 0.1000 0.0268 0.9946
vn -0.0449 0.1083 0.9931
vn -0.1083 -0.0449 0.9931
vn 0.0732 -0.0732 0.9946
vn -0.0000 0.1172 -0.9931
vn 0.1083 -0.0449 -0.9931
vn -0.0000 -0.0000 -1.0000
vn 0.0268 -0.9946 -0.1000
vn 0.0268 -0.9946 0.1000
vn -0.0000 -0.9931 0.1172
vn -0.1083 -0.9931 -0.0449
vn -0.0000 -1.0000 -0.0000
vn -0.1083 -0.9931 0.0449
vn -0.0829 -0.9931 -0.0829
vn 0.0449 -0.9931 -0.1083
vn 0.1172 -0.9931 -0.0000
vn 0.0449 0.9931 0.1083
vn 0.1083 0.9931 -0.0449
vn -0.0000 1.0000 -0.0000
vn 0.0449 -0.1083 0.9931
vn 0.1083 0.0449 0.9931
vn -0.0000 -0.0000 1.0000
vn 0.1172 0.9931 -0.0000
vn -0.1000 0.9946 -0.0268
vn -0.0732 0.9946 0.0732
vn -0.0000 0.9931 -0.1172
vn -0.0829 0.0829 0.9931
vn -0.1172 -0.0000 0.9931
vn -0.0449 0.1083 -0.9931
vn 0.9946 0.0268 -0.1000
vn 0.9946 0.1000 0.0268
vn 0.9946 -0.0732 0.0732
vn 0.9946 -0.0268 -0.1000
vn -0.0000 -0.1172 0.9931
vn 0.0829 0.0829 0.9931
vn -0.0268 0.1000 0.9946
vn -0.0268 -0.1000 0.9946
vn 0.1083 0.0449 -0.9931
vn -0.0732 -0.0732 -0.9946
vn -0.1000 0.0268 -0.9946
vn 0.0829 -0.9931 -0.0829
vn 0.0449 -0.9931 0.1083
vn -0.0268 -0.9946 0.1000
vn -0.1000 -0.9946 -0.0268
vt 1.997931 1.000000
vt 2.997931 1.000001
vt 2.997931 2.000000
vt 1.997931 2.000000
vt 1.997931 1.000000
vt 1.997931 0.000000
vt 2.997932 0.000000
vt 2.997931 1.000000
vt 3.997931 2.000001
vt 2.997931 2.000000
vt 3.997931 1.000001
vt -1.002069 -1.000000
vt -0.002068 -1.000000
vt -0.002069 -0.000000
vt -1.002069 -0.000000
vt 0.997931 2.000000
vt 0.997932 1.000000
vt -1.002069 -1.000001
vt -1.002068 -2.000001
vt -0.002069 -2.000000
vt -0.002069 -1.000001
vt 0.997932 -1.000000
vt 0.997932 -2.000000
vt 1.997932 -2.000000
vt 1.997932 -1.000000
vt 0.997932 1.000000
vt 0.997932 0.000000
vt 0.997932 -1.000000
vt 0.997931 0.000000
vt -0.002068 -0.000000
vt -0.002069 1.000000
vt -1.002068 1.000000
vt -1.002068 -0.000000
vt 1.997932 -1.000000
vt -0.002069 2.000000
vt 2.997932 0.000000
vt 3.997931 0.000000
vt 3.997931 1.000000
vt 2.997931 1.000000
vt 2.997931 -1.000000
vt 2.997931 0.000000
vt -1.002069 2.000000
vt -1.002068 1.000000
vt 2.997931 -2.000000
vt 2.997931 -1.000000
s 0
usemtl Material.001
f 1/1/1 5/2/2 7/3/3 3/4/4
f 4/5/5 3/6/6 7/7/7 8/8/8
f 8/9/9 7/10/10 5/8/11 6/11/12
f 6/12/13 2/13/14 4/14/15 8/15/16
f 1/1/17 3/4/18 10/16/19 9/17/19
f 6/18/20 5/19/21 1/20/22 2/21/23
f 12/22/24 9/23/24 13/24/25 16/25/26
f 2/21/27 1/20/28 9/23/24 12/22/24
f 3/6/29 4/5/30 11/26/31 10/27/31
f 4/14/32 2/13/33 12/28/34 11/29/34
f 14/30/29 15/31/35 19/32/36 18/33/37
f 10/27/31 11/26/31 15/31/38 14/30/6
f 11/29/34 12/28/34 16/34/39 15/6/40
f 9/17/19 10/16/19 14/35/4 13/31/41
f 20/36/42 17/37/43 18/38/44 19/39/45
f 15/6/46 16/34/47 20/40/48 19/41/49
f 13/31/50 14/35/18 18/42/51 17/43/52
f 16/25/53 13/24/54 17/44/55 20/45/56
